<?xml version="1.0" encoding="UTF-8"?> <svg xmlns="http://www.w3.org/2000/svg" width="287" height="137" viewBox="0 0 287 137" fill="none"><path d="M233.77 10V2.95H234.73L238.52 7.87V2.95H239.71V10H238.76L234.96 5.06V10H233.77ZM243.51 10.1C243.004 10.1 242.564 9.99667 242.19 9.79C241.817 9.58333 241.527 9.29 241.32 8.91C241.114 8.52333 241.01 8.07 241.01 7.55C241.01 7.03 241.114 6.58 241.32 6.2C241.527 5.82 241.817 5.52667 242.19 5.32C242.564 5.11333 243.004 5.01 243.51 5.01C244.017 5.01 244.457 5.11333 244.83 5.32C245.204 5.52667 245.494 5.82 245.7 6.2C245.907 6.58 246.01 7.03 246.01 7.55C246.01 8.07 245.907 8.52333 245.7 8.91C245.494 9.29 245.204 9.58333 244.83 9.79C244.457 9.99667 244.017 10.1 243.51 10.1ZM243.51 9.15C243.884 9.15 244.184 9.01667 244.41 8.75C244.637 8.47667 244.75 8.07667 244.75 7.55C244.75 7.01667 244.637 6.62 244.41 6.36C244.184 6.09333 243.884 5.96 243.51 5.96C243.137 5.96 242.837 6.09333 242.61 6.36C242.384 6.62 242.27 7.01667 242.27 7.55C242.27 8.07667 242.384 8.47667 242.61 8.75C242.837 9.01667 243.137 9.15 243.51 9.15ZM249.383 10.1C248.09 10.1 247.443 9.46 247.443 8.18V6.05H246.503V5.11H247.443V3.65H248.693V5.11H250.173V6.05H248.693V8.11C248.693 8.43 248.763 8.67 248.903 8.83C249.043 8.99 249.27 9.07 249.583 9.07C249.677 9.07 249.773 9.06 249.873 9.04C249.973 9.01333 250.077 8.98667 250.183 8.96L250.373 9.88C250.253 9.94667 250.1 10 249.913 10.04C249.733 10.08 249.557 10.1 249.383 10.1ZM255.857 10.1C255.43 10.1 255.053 9.99667 254.727 9.79C254.407 9.58333 254.157 9.29 253.977 8.91C253.797 8.52333 253.707 8.07 253.707 7.55C253.707 7.02333 253.797 6.57333 253.977 6.2C254.157 5.82 254.407 5.52667 254.727 5.32C255.053 5.11333 255.43 5.01 255.857 5.01C256.203 5.01 256.517 5.08667 256.797 5.24C257.077 5.39333 257.287 5.59667 257.427 5.85V2.95H258.677V10H257.457V9.19C257.323 9.47 257.113 9.69333 256.827 9.86C256.54 10.02 256.217 10.1 255.857 10.1ZM256.207 9.15C256.58 9.15 256.88 9.01667 257.107 8.75C257.333 8.47667 257.447 8.07667 257.447 7.55C257.447 7.01667 257.333 6.62 257.107 6.36C256.88 6.09333 256.58 5.96 256.207 5.96C255.833 5.96 255.533 6.09333 255.307 6.36C255.08 6.62 254.967 7.01667 254.967 7.55C254.967 8.07667 255.08 8.47667 255.307 8.75C255.533 9.01667 255.833 9.15 256.207 9.15ZM260.123 10V5.11H261.343V5.97C261.583 5.39 262.096 5.07 262.883 5.01L263.263 4.98L263.343 6.04L262.623 6.11C261.803 6.19 261.393 6.61 261.393 7.37V10H260.123ZM265.75 10.1C265.397 10.1 265.08 10.0333 264.8 9.9C264.527 9.76 264.31 9.57333 264.15 9.34C263.997 9.10667 263.92 8.84333 263.92 8.55C263.92 8.19 264.013 7.90667 264.2 7.7C264.387 7.48667 264.69 7.33333 265.11 7.24C265.53 7.14667 266.093 7.1 266.8 7.1H267.15V6.89C267.15 6.55667 267.077 6.31667 266.93 6.17C266.783 6.02333 266.537 5.95 266.19 5.95C265.917 5.95 265.637 5.99333 265.35 6.08C265.063 6.16 264.773 6.28667 264.48 6.46L264.12 5.61C264.293 5.49 264.497 5.38667 264.73 5.3C264.97 5.20667 265.22 5.13667 265.48 5.09C265.747 5.03667 265.997 5.01 266.23 5.01C266.943 5.01 267.473 5.17667 267.82 5.51C268.167 5.83667 268.34 6.34667 268.34 7.04V10H267.17V9.22C267.057 9.49333 266.877 9.71 266.63 9.87C266.383 10.0233 266.09 10.1 265.75 10.1ZM266.01 9.24C266.337 9.24 266.607 9.12667 266.82 8.9C267.04 8.67333 267.15 8.38667 267.15 8.04V7.82H266.81C266.183 7.82 265.747 7.87 265.5 7.97C265.26 8.06333 265.14 8.23667 265.14 8.49C265.14 8.71 265.217 8.89 265.37 9.03C265.523 9.17 265.737 9.24 266.01 9.24ZM271.06 10L269.13 5.11H270.41L271.66 8.55L272.92 5.11H273.8L275.06 8.57L276.31 5.11H277.52L275.6 10H274.51L273.32 6.85L272.15 10H271.06ZM278.385 10V5.11H279.605V5.87C279.772 5.59 279.995 5.37667 280.275 5.23C280.562 5.08333 280.882 5.01 281.235 5.01C282.388 5.01 282.965 5.68 282.965 7.02V10H281.715V7.08C281.715 6.7 281.642 6.42333 281.495 6.25C281.355 6.07667 281.135 5.99 280.835 5.99C280.468 5.99 280.175 6.10667 279.955 6.34C279.742 6.56667 279.635 6.87 279.635 7.25V10H278.385ZM235.89 23.1C234.597 23.1 233.95 22.46 233.95 21.18V19.05H233.01V18.11H233.95V16.65H235.2V18.11H236.68V19.05H235.2V21.11C235.2 21.43 235.27 21.67 235.41 21.83C235.55 21.99 235.777 22.07 236.09 22.07C236.183 22.07 236.28 22.06 236.38 22.04C236.48 22.0133 236.583 21.9867 236.69 21.96L236.88 22.88C236.76 22.9467 236.607 23 236.42 23.04C236.24 23.08 236.063 23.1 235.89 23.1ZM239.819 23.1C239.312 23.1 238.872 22.9967 238.499 22.79C238.126 22.5833 237.836 22.29 237.629 21.91C237.422 21.5233 237.319 21.07 237.319 20.55C237.319 20.03 237.422 19.58 237.629 19.2C237.836 18.82 238.126 18.5267 238.499 18.32C238.872 18.1133 239.312 18.01 239.819 18.01C240.326 18.01 240.766 18.1133 241.139 18.32C241.512 18.5267 241.802 18.82 242.009 19.2C242.216 19.58 242.319 20.03 242.319 20.55C242.319 21.07 242.216 21.5233 242.009 21.91C241.802 22.29 241.512 22.5833 241.139 22.79C240.766 22.9967 240.326 23.1 239.819 23.1ZM239.819 22.15C240.192 22.15 240.492 22.0167 240.719 21.75C240.946 21.4767 241.059 21.0767 241.059 20.55C241.059 20.0167 240.946 19.62 240.719 19.36C240.492 19.0933 240.192 18.96 239.819 18.96C239.446 18.96 239.146 19.0933 238.919 19.36C238.692 19.62 238.579 20.0167 238.579 20.55C238.579 21.0767 238.692 21.4767 238.919 21.75C239.146 22.0167 239.446 22.15 239.819 22.15ZM248.136 23.1C247.723 23.1 247.336 23.05 246.976 22.95C246.616 22.85 246.316 22.7067 246.076 22.52L246.396 21.7C246.643 21.8667 246.919 21.9967 247.226 22.09C247.533 22.1767 247.839 22.22 248.146 22.22C248.466 22.22 248.703 22.1667 248.856 22.06C249.016 21.9467 249.096 21.8 249.096 21.62C249.096 21.34 248.889 21.16 248.476 21.08L247.476 20.89C246.629 20.73 246.206 20.29 246.206 19.57C246.206 19.25 246.293 18.9733 246.466 18.74C246.646 18.5067 246.893 18.3267 247.206 18.2C247.519 18.0733 247.879 18.01 248.286 18.01C248.633 18.01 248.966 18.06 249.286 18.16C249.606 18.2533 249.879 18.3967 250.106 18.59L249.766 19.41C249.573 19.25 249.339 19.1233 249.066 19.03C248.799 18.9367 248.543 18.89 248.296 18.89C247.969 18.89 247.726 18.9467 247.566 19.06C247.413 19.1733 247.336 19.3233 247.336 19.51C247.336 19.8033 247.526 19.9833 247.906 20.05L248.906 20.24C249.339 20.32 249.666 20.4667 249.886 20.68C250.113 20.8933 250.226 21.18 250.226 21.54C250.226 22.0267 250.036 22.41 249.656 22.69C249.276 22.9633 248.769 23.1 248.136 23.1ZM253.639 23.1C253.126 23.1 252.679 22.9967 252.299 22.79C251.919 22.5767 251.626 22.2767 251.419 21.89C251.212 21.5033 251.109 21.05 251.109 20.53C251.109 20.01 251.212 19.5633 251.419 19.19C251.626 18.81 251.919 18.52 252.299 18.32C252.679 18.1133 253.126 18.01 253.639 18.01C253.952 18.01 254.262 18.06 254.569 18.16C254.876 18.26 255.129 18.4 255.329 18.58L254.959 19.45C254.786 19.2967 254.589 19.18 254.369 19.1C254.156 19.02 253.949 18.98 253.749 18.98C253.316 18.98 252.979 19.1167 252.739 19.39C252.506 19.6567 252.389 20.04 252.389 20.54C252.389 21.0333 252.506 21.4233 252.739 21.71C252.979 21.99 253.316 22.13 253.749 22.13C253.942 22.13 254.149 22.09 254.369 22.01C254.589 21.93 254.786 21.81 254.959 21.65L255.329 22.53C255.129 22.7033 254.872 22.8433 254.559 22.95C254.252 23.05 253.946 23.1 253.639 23.1ZM257.826 23.1C257.473 23.1 257.156 23.0333 256.876 22.9C256.603 22.76 256.386 22.5733 256.226 22.34C256.073 22.1067 255.996 21.8433 255.996 21.55C255.996 21.19 256.09 20.9067 256.276 20.7C256.463 20.4867 256.766 20.3333 257.186 20.24C257.606 20.1467 258.17 20.1 258.876 20.1H259.226V19.89C259.226 19.5567 259.153 19.3167 259.006 19.17C258.86 19.0233 258.613 18.95 258.266 18.95C257.993 18.95 257.713 18.9933 257.426 19.08C257.14 19.16 256.85 19.2867 256.556 19.46L256.196 18.61C256.37 18.49 256.573 18.3867 256.806 18.3C257.046 18.2067 257.296 18.1367 257.556 18.09C257.823 18.0367 258.073 18.01 258.306 18.01C259.02 18.01 259.55 18.1767 259.896 18.51C260.243 18.8367 260.416 19.3467 260.416 20.04V23H259.246V22.22C259.133 22.4933 258.953 22.71 258.706 22.87C258.46 23.0233 258.166 23.1 257.826 23.1ZM258.086 22.24C258.413 22.24 258.683 22.1267 258.896 21.9C259.116 21.6733 259.226 21.3867 259.226 21.04V20.82H258.886C258.26 20.82 257.823 20.87 257.576 20.97C257.336 21.0633 257.216 21.2367 257.216 21.49C257.216 21.71 257.293 21.89 257.446 22.03C257.6 22.17 257.813 22.24 258.086 22.24ZM263.535 23.1C262.955 23.1 262.525 22.9433 262.245 22.63C261.972 22.31 261.835 21.8433 261.835 21.23V15.95H263.085V21.17C263.085 21.77 263.338 22.07 263.845 22.07C263.918 22.07 263.992 22.0667 264.065 22.06C264.138 22.0533 264.208 22.04 264.275 22.02L264.255 23.01C264.015 23.07 263.775 23.1 263.535 23.1ZM267.54 23.1C266.986 23.1 266.51 22.9967 266.11 22.79C265.71 22.5833 265.4 22.29 265.18 21.91C264.966 21.53 264.86 21.08 264.86 20.56C264.86 20.0533 264.963 19.61 265.17 19.23C265.383 18.85 265.673 18.5533 266.04 18.34C266.413 18.12 266.836 18.01 267.31 18.01C268.003 18.01 268.55 18.23 268.95 18.67C269.356 19.11 269.56 19.71 269.56 20.47V20.84H266.06C266.153 21.7133 266.653 22.15 267.56 22.15C267.833 22.15 268.106 22.11 268.38 22.03C268.653 21.9433 268.903 21.81 269.13 21.63L269.48 22.47C269.246 22.6633 268.953 22.8167 268.6 22.93C268.246 23.0433 267.893 23.1 267.54 23.1ZM267.36 18.86C266.993 18.86 266.696 18.9733 266.47 19.2C266.243 19.4267 266.106 19.7333 266.06 20.12H268.52C268.493 19.7133 268.38 19.4033 268.18 19.19C267.986 18.97 267.713 18.86 267.36 18.86Z" fill="black"></path><path d="M153.795 102.342L20.3355 85.174L176.28 12.6861L153.795 102.342Z" fill="#FF4081" fill-opacity="0.3" stroke="#FF4081" stroke-width="3"></path><path d="M52 71C54.0572 73.8362 55.3572 76.9946 55.8151 80.2687C56.2729 83.5428 55.8783 86.8588 54.6571 90" stroke="#FF4081" stroke-width="2"></path><g clip-path="url(#clip0)"><path d="M3.32794 88.8631C3.32794 89.1089 3.57326 89.2523 4.06391 89.2933C4.2559 89.2933 4.3519 89.3496 4.3519 89.4623C4.3519 89.4725 4.34123 89.5391 4.3199 89.662C4.2879 89.8054 4.2559 89.8976 4.2239 89.9385C4.1919 89.9795 4.12257 90 4.01591 90C3.99458 90 3.93058 90 3.82392 90C3.71726 90 3.53593 89.9949 3.27994 89.9846C3.02395 89.9744 2.68263 89.9693 2.25599 89.9693C1.49869 89.9693 1.01337 89.9795 0.800048 90H0.672054C0.59739 89.9283 0.560059 89.872 0.560059 89.831C0.581391 89.5545 0.650721 89.3752 0.76805 89.2933H0.99204C1.73867 89.2626 2.28265 89.0065 2.62397 88.5251C2.68797 88.4637 3.65326 86.9018 5.51985 83.8394C7.38643 80.777 8.33572 79.2253 8.36772 79.1844C8.44239 79.0615 8.57038 79 8.75171 79H8.8797H9.15169C9.21569 79.0922 9.24769 79.1434 9.24769 79.1536L9.69567 84.1159C9.99432 87.4241 10.1543 89.0936 10.1756 89.1243C10.229 89.237 10.5756 89.2933 11.2156 89.2933C11.4823 89.2933 11.6156 89.3445 11.6156 89.4469C11.6156 89.4674 11.5996 89.5391 11.5676 89.662C11.5356 89.8156 11.5089 89.9078 11.4876 89.9385C11.4663 89.9693 11.3916 89.9898 11.2636 90C11.2316 90 11.1569 90 11.0396 90C10.9223 90 10.7143 89.9949 10.4156 89.9846C10.117 89.9744 9.72766 89.9693 9.24769 89.9693C8.24506 89.9693 7.58909 89.9795 7.27977 90H7.08778C7.02378 89.9385 6.99178 89.8925 6.99178 89.8617C6.99178 89.831 7.00245 89.7388 7.02378 89.5852C7.06645 89.452 7.09844 89.3701 7.11978 89.3394L7.18377 89.2933H7.50376C8.07974 89.2626 8.42105 89.1755 8.52772 89.0321L8.33572 86.7277H4.52789L3.98391 87.6187C3.5466 88.3254 3.32794 88.7402 3.32794 88.8631ZM8.25573 86.0056C8.25573 85.8929 8.19173 85.094 8.06374 83.6089C7.93574 82.1238 7.86108 81.3762 7.83975 81.3659L7.40776 82.0265C7.23711 82.3031 6.90112 82.851 6.39981 83.6704L4.95987 86.0056L6.6078 86.021C7.70642 86.021 8.25573 86.0158 8.25573 86.0056Z" fill="black"></path></g><g clip-path="url(#clip1)"><path d="M181.348 0.673498C181.087 0.673498 180.933 0.668618 180.885 0.658857C180.836 0.649096 180.812 0.595411 180.812 0.497803C180.812 0.23426 180.865 0.0732059 180.971 0.0146408C180.981 0.00487995 181.609 -9.53674e-07 182.855 -9.53674e-07C185.358 -9.53674e-07 186.677 0.0097599 186.812 0.0292816C187.42 0.12689 187.928 0.34651 188.333 0.68814C188.739 1.02977 188.947 1.47877 188.957 2.03514C188.957 2.65983 188.676 3.22108 188.116 3.71889C187.556 4.21669 186.913 4.55344 186.189 4.72914L186.044 4.77306C186.662 4.86091 187.169 5.08541 187.565 5.44656C187.961 5.80771 188.164 6.25671 188.174 6.79356C188.174 7.5061 187.826 8.19424 187.131 8.85798C186.435 9.52172 185.58 9.89751 184.565 9.98536C184.498 9.99512 183.479 10 181.508 10C179.575 10 178.595 9.99024 178.566 9.97072C178.527 9.94143 178.508 9.90239 178.508 9.85359C178.508 9.78526 178.517 9.71694 178.537 9.64861C178.585 9.46315 178.633 9.36066 178.682 9.34114C178.72 9.33138 178.793 9.3265 178.899 9.3265H178.986C179.247 9.3265 179.537 9.31186 179.856 9.28258C179.991 9.25329 180.083 9.19473 180.131 9.10688C180.16 9.06784 180.508 7.71108 181.174 5.0366C181.841 2.36213 182.174 0.951683 182.174 0.80527C182.174 0.736944 181.899 0.69302 181.348 0.673498ZM187.406 2.03514C187.406 1.74231 187.333 1.46901 187.189 1.21523C187.044 0.961444 186.807 0.795509 186.478 0.717422C186.411 0.697901 185.966 0.683259 185.145 0.673498C184.952 0.673498 184.749 0.673498 184.537 0.673498C184.324 0.673498 184.155 0.678379 184.029 0.68814H183.841C183.696 0.697901 183.604 0.746705 183.566 0.834553C183.546 0.873596 183.392 1.45925 183.102 2.59151C183.102 2.62079 183.097 2.65007 183.087 2.67936L182.638 4.52416H183.812C184.594 4.52416 185.044 4.5144 185.16 4.49487C185.739 4.39727 186.256 4.1142 186.71 3.64568C187.164 3.17716 187.396 2.64031 187.406 2.03514ZM186.623 6.64714C186.623 6.21767 186.512 5.8614 186.29 5.57833C186.068 5.29527 185.778 5.12933 185.421 5.08053C185.363 5.07077 184.962 5.06589 184.218 5.06589C183.078 5.06589 182.503 5.07077 182.493 5.08053C182.493 5.10005 182.411 5.45632 182.247 6.14934C182.083 6.84236 181.913 7.5305 181.74 8.21376L181.479 9.23865C181.479 9.2777 181.537 9.29722 181.653 9.29722C181.769 9.29722 182.16 9.30698 182.826 9.3265C183.686 9.3265 184.15 9.32162 184.218 9.31186C184.817 9.24353 185.367 8.96047 185.87 8.46266C186.372 7.96486 186.623 7.35969 186.623 6.64714Z" fill="black"></path></g><g clip-path="url(#clip2)"><path d="M159.7 105.231C159.7 104.177 160.012 103.163 160.637 102.191C161.261 101.219 162.049 100.449 163 99.8803C163.951 99.3118 164.902 99.0229 165.853 99.0138C166.692 99.0138 167.359 99.2476 167.853 99.7153C167.937 99.807 168.007 99.8849 168.063 99.9491C168.118 100.013 168.156 100.059 168.174 100.087L168.188 100.128C168.216 100.128 168.342 100.009 168.566 99.7703C168.631 99.7153 168.701 99.6511 168.776 99.5777C168.85 99.5044 168.925 99.431 169 99.3576C169.074 99.2843 169.121 99.2338 169.139 99.2063L169.349 99H169.433C169.564 99 169.629 99.0321 169.629 99.0963C169.629 99.133 169.48 99.7611 169.181 100.981C168.846 102.255 168.678 102.897 168.678 102.906C168.659 102.952 168.636 102.98 168.608 102.989C168.58 102.998 168.496 103.007 168.356 103.017H168.132C168.077 102.961 168.049 102.92 168.049 102.893C168.049 102.884 168.053 102.851 168.063 102.796C168.072 102.741 168.081 102.65 168.091 102.521C168.1 102.393 168.105 102.246 168.105 102.081C168.105 101.43 167.955 100.862 167.657 100.376C167.359 99.8895 166.851 99.6419 166.133 99.6327C165.89 99.6327 165.629 99.6648 165.35 99.729C165.07 99.7932 164.734 99.9033 164.343 100.059C163.951 100.215 163.564 100.472 163.182 100.829C162.8 101.187 162.459 101.613 162.161 102.109C161.863 102.631 161.625 103.241 161.448 103.938C161.271 104.635 161.182 105.204 161.182 105.644C161.182 106.689 161.536 107.441 162.245 107.9C162.692 108.211 163.242 108.367 163.895 108.367C164.744 108.367 165.499 108.055 166.161 107.432C166.823 106.808 167.261 106.13 167.475 105.396C167.512 105.277 167.54 105.208 167.559 105.19C167.578 105.171 167.652 105.162 167.783 105.162C167.969 105.162 168.063 105.204 168.063 105.286C168.063 105.332 168.058 105.373 168.049 105.41C167.778 106.391 167.2 107.235 166.314 107.941C165.429 108.647 164.478 109 163.462 109C162.408 109 161.518 108.656 160.791 107.968C160.063 107.281 159.7 106.368 159.7 105.231Z" fill="black"></path></g><g clip-path="url(#clip3)"><path d="M50.1055 30.3725C50.1189 30.3457 50.2327 29.617 50.4469 28.1862L50.7682 26.0401C50.7682 26.0134 50.9021 26 51.1699 26H51.5716V26.0802C51.5716 26.2139 51.672 26.3276 51.8729 26.4212C52.0737 26.5148 52.4218 26.575 52.9173 26.6017C53.4127 26.6285 54.5441 26.6418 56.3115 26.6418H58.7417V27.4241L57.376 29.2894C57.2554 29.4499 57.0546 29.7173 56.7734 30.0917C56.4922 30.4661 56.3115 30.7135 56.2312 30.8338C56.1508 30.9542 56.0102 31.1681 55.8094 31.4756C55.6085 31.7832 55.4746 32.0239 55.4077 32.1977C55.3408 32.3715 55.247 32.6189 55.1265 32.9398C55.006 33.2607 54.919 33.5683 54.8654 33.8625C54.8119 34.1566 54.7583 34.5177 54.7048 34.9456C54.6512 35.3734 54.611 35.8281 54.5842 36.3095C54.5575 36.7908 54.5374 37.3391 54.524 37.9542C54.524 38.1414 54.524 38.3286 54.524 38.5158C54.524 38.703 54.5173 38.8634 54.5039 38.9971V39.1777C54.4504 39.405 54.3232 39.5989 54.1223 39.7593C53.9215 39.9198 53.6938 40 53.4394 40C53.2922 40 53.1516 39.9799 53.0177 39.9398C52.8838 39.8997 52.7432 39.7727 52.5959 39.5587C52.4486 39.3448 52.375 39.0774 52.375 38.7564C52.375 36.6437 53.0244 34.4508 54.3232 32.1777C54.5909 31.7498 55.1533 30.9408 56.0102 29.7507L56.9341 28.4871H55.0663C52.7365 28.4871 51.5114 28.5272 51.3909 28.6075C51.3105 28.6476 51.2369 28.808 51.1699 29.0888C51.103 29.3696 51.036 29.6571 50.9691 29.9513L50.9088 30.3725V30.4327H50.1055V30.3725Z" fill="black"></path><path d="M60.6094 38.3552C60.6094 38.0342 60.7232 37.7534 60.9508 37.5127C61.1784 37.2721 61.4663 37.1517 61.8144 37.1517C62.1358 37.1517 62.417 37.2587 62.658 37.4726C62.899 37.6866 63.0262 37.9741 63.0396 38.3351C63.0396 38.6694 62.9258 38.9569 62.6981 39.1976C62.4705 39.4382 62.1826 39.5586 61.8345 39.5586C61.4864 39.5586 61.1985 39.4449 60.9709 39.2176C60.7433 38.9903 60.6228 38.7028 60.6094 38.3552Z" fill="black"></path><path d="M66.032 31.1948C66.032 31.1948 66.032 30.68 66.032 29.6504C66.032 28.6208 66.3935 27.7918 67.1166 27.1633C67.8396 26.5349 68.6697 26.2139 69.607 26.2006C70.5577 26.2006 71.4012 26.4814 72.1376 27.043C72.874 27.6046 73.2423 28.3333 73.2423 29.2292C73.2423 29.6304 73.1686 30.0048 73.0213 30.3524C72.874 30.7001 72.7 30.9809 72.4991 31.1948C72.2983 31.4088 72.0908 31.596 71.8765 31.7564C71.6623 31.9169 71.4882 32.0372 71.3543 32.1175C71.2204 32.1977 71.1468 32.2512 71.1334 32.2779L71.4146 32.4585C71.602 32.5922 71.7895 32.7259 71.9769 32.8596C72.1644 32.9933 72.2715 33.0669 72.2983 33.0802C73.3025 33.8691 73.8046 34.8653 73.8046 36.0688C73.8046 37.1251 73.4163 38.0411 72.6397 38.8166C71.8631 39.5922 70.8589 39.9866 69.6271 40C68.422 40 67.4312 39.659 66.6546 38.9771C65.878 38.2951 65.4897 37.4527 65.4897 36.4499C65.4897 35.0057 66.3534 33.8023 68.0806 32.8395L67.7191 32.5788C67.4379 32.405 67.2572 32.2713 67.1768 32.1776C66.4136 31.5224 66.032 30.68 66.032 29.6504V31.1948ZM70.3702 31.8166L70.4907 31.7364C70.5711 31.6829 70.6313 31.6428 70.6715 31.616C70.7116 31.5893 70.7786 31.5425 70.8723 31.4756C70.966 31.4088 71.0464 31.3419 71.1133 31.2751C71.1803 31.2082 71.2539 31.128 71.3343 31.0344C71.4146 30.9408 71.4882 30.8539 71.5552 30.7736C71.6221 30.6934 71.6891 30.5864 71.756 30.4527C71.823 30.319 71.8832 30.2053 71.9368 30.1117C71.9903 30.0181 72.0238 29.8844 72.0372 29.7106C72.0506 29.5368 72.064 29.3897 72.0774 29.2693C72.0774 28.6944 71.8832 28.2063 71.4949 27.8052C71.1066 27.404 70.6581 27.15 70.1493 27.043C70.0556 27.0296 69.8346 27.0229 69.4865 27.0229C68.9375 27.0229 68.422 27.1968 67.94 27.5444C67.458 27.8921 67.2103 28.3266 67.1969 28.8481C67.1969 29.1557 67.2839 29.4365 67.458 29.6905C67.6321 29.9446 67.8061 30.1385 67.9802 30.2722C68.1543 30.4059 68.489 30.6199 68.9844 30.914C69.0781 30.9809 69.1518 31.0277 69.2053 31.0544L70.3702 31.8166ZM69.6472 39.1375C70.4238 39.1375 71.0932 38.9102 71.6556 38.4556C72.218 38.001 72.4991 37.4527 72.4991 36.8109C72.4991 36.5836 72.4657 36.3696 72.3987 36.1691C72.3318 35.9685 72.2514 35.8013 72.1577 35.6676C72.064 35.5339 71.9167 35.3868 71.7159 35.2264C71.515 35.0659 71.361 34.9456 71.2539 34.8653C71.1468 34.7851 70.9527 34.6581 70.6715 34.4842C70.3903 34.3104 70.2095 34.1968 70.1292 34.1433C69.9417 34.0229 69.7409 33.8959 69.5267 33.7622C69.3124 33.6285 69.1384 33.5148 69.0045 33.4212L68.8438 33.3209C68.7635 33.3209 68.5693 33.4346 68.2614 33.6619C67.9534 33.8892 67.6321 34.2569 67.2973 34.765C66.9626 35.2732 66.7885 35.8214 66.7751 36.4097C66.7751 37.1987 67.063 37.8472 67.6388 38.3553C68.2145 38.8634 68.884 39.1242 69.6472 39.1375Z" fill="black"></path><path d="M75.3516 36.3701C75.3516 34.9126 75.9273 33.6022 77.0788 32.4388C78.2303 31.2755 79.4755 30.6938 80.8145 30.6938C81.5643 30.6938 82.1534 30.8543 82.5819 31.1752C83.0103 31.4961 83.2313 31.9173 83.2447 32.4388C83.2447 32.8266 83.1175 33.1542 82.8631 33.4216C82.6087 33.6891 82.2873 33.8295 81.899 33.8428C81.6446 33.8428 81.4438 33.776 81.2965 33.6423C81.1492 33.5086 81.0756 33.308 81.0756 33.0406C81.0756 32.7731 81.1492 32.5458 81.2965 32.3586C81.4438 32.1714 81.5911 32.031 81.7383 31.9374C81.8856 31.8438 81.9794 31.8037 82.0195 31.8171H82.0396C82.0396 31.7903 81.9994 31.7502 81.9191 31.6967C81.8388 31.6432 81.6982 31.5897 81.4973 31.5363C81.2965 31.4828 81.0689 31.456 80.8145 31.456C80.4128 31.456 80.0312 31.5496 79.6697 31.7368C79.3885 31.8572 79.1006 32.0644 78.806 32.3586C78.2169 32.947 77.7884 33.776 77.5207 34.8457C77.2529 35.9154 77.1123 36.691 77.0989 37.1724C77.0989 37.7874 77.273 38.2488 77.6211 38.5563C77.9156 38.8772 78.3039 39.0377 78.786 39.0377H78.8663C80.3659 39.0377 81.6044 38.4694 82.5819 37.3328C82.7024 37.1991 82.7827 37.1322 82.8229 37.1322C82.8765 37.1322 82.9635 37.1924 83.084 37.3128C83.2045 37.4331 83.2714 37.5267 83.2848 37.5936C83.2982 37.6604 83.238 37.7607 83.1041 37.8944C82.9702 38.0281 82.776 38.2153 82.5216 38.456C82.2672 38.6967 81.966 38.8973 81.6178 39.0577C81.2697 39.2182 80.8412 39.3853 80.3324 39.5592C79.8236 39.733 79.2881 39.8066 78.7257 39.7798C77.7215 39.7798 76.9114 39.4589 76.2955 38.8171C75.6796 38.1752 75.365 37.3596 75.3516 36.3701Z" fill="black"></path><path d="M83.7866 33.8022C83.8 33.722 83.8201 33.615 83.8469 33.4813C83.8737 33.3476 83.954 33.0935 84.0879 32.7191C84.2218 32.3447 84.3557 32.0305 84.4896 31.7764C84.6235 31.5224 84.8377 31.275 85.1323 31.0343C85.4268 30.7936 85.7214 30.68 86.016 30.6933C86.3105 30.7067 86.5984 30.7535 86.8796 30.8337C87.1608 30.914 87.3616 31.0343 87.4821 31.1948C87.6026 31.3552 87.7097 31.5023 87.8035 31.636C87.8972 31.7697 87.9507 31.8968 87.9641 32.0171L88.0043 32.1575C88.0043 32.1843 88.011 32.1976 88.0244 32.1976L88.2453 31.977C89.0487 31.1212 89.9926 30.6933 91.0772 30.6933C91.3048 30.6933 91.5124 30.7067 91.6998 30.7335C91.8873 30.7602 92.0613 30.807 92.222 30.8739C92.3827 30.9407 92.5099 31.0076 92.6036 31.0744C92.6973 31.1413 92.7977 31.2215 92.9049 31.3151C93.012 31.4087 93.0789 31.4956 93.1057 31.5759C93.1325 31.6561 93.186 31.743 93.2664 31.8366C93.3467 31.9302 93.3735 32.0104 93.3467 32.0773C93.3199 32.1441 93.34 32.2043 93.407 32.2578C93.4739 32.3113 93.4873 32.3581 93.4471 32.3982L93.6078 32.1976C94.4513 31.1948 95.4489 30.6933 96.6004 30.6933C97.3234 30.6933 97.9058 30.8739 98.3477 31.2349C98.7895 31.5959 99.0172 32.1241 99.0305 32.8194C99.0305 33.5014 98.7761 34.5577 98.2673 35.9885C97.7585 37.4192 97.5041 38.275 97.5041 38.5558C97.5175 38.743 97.551 38.87 97.6046 38.9369C97.6581 39.0037 97.7585 39.0372 97.9058 39.0372C98.2807 39.0372 98.6289 38.8366 98.9502 38.4355C99.2716 38.0343 99.5326 37.4861 99.7335 36.7908C99.7737 36.6437 99.8138 36.5568 99.854 36.53C99.8942 36.5033 100.001 36.4899 100.175 36.4899C100.443 36.4899 100.577 36.5434 100.577 36.6504C100.577 36.6637 100.55 36.764 100.497 36.9512C100.39 37.339 100.242 37.7201 100.055 38.0945C99.8674 38.4689 99.5594 38.8433 99.131 39.2177C98.7025 39.5921 98.2406 39.7726 97.7452 39.7592C97.1158 39.7592 96.6606 39.5787 96.3794 39.2177C96.0982 38.8567 95.9577 38.4823 95.9577 38.0945C95.9577 37.8404 96.1987 37.0381 96.6807 35.6876C97.1627 34.3371 97.4104 33.3208 97.4238 32.6389C97.4238 31.85 97.1292 31.4555 96.5401 31.4555H96.4397C95.2882 31.4555 94.3174 32.1308 93.5275 33.4813L93.3869 33.722L92.7241 36.4097C92.2822 38.1613 92.0278 39.104 91.9609 39.2377C91.7868 39.5988 91.499 39.7793 91.0973 39.7793C90.9232 39.7793 90.7826 39.7325 90.6755 39.6389C90.5684 39.5453 90.4948 39.4651 90.4546 39.3982C90.4144 39.3314 90.3943 39.2645 90.3943 39.1976C90.3943 39.0505 90.622 38.0945 91.0772 36.3294L91.8002 33.4011C91.8404 33.2005 91.8605 32.9464 91.8605 32.6389C91.8605 31.85 91.5659 31.4555 90.9768 31.4555H90.8764C89.7249 31.4555 88.7541 32.1308 87.9641 33.4813L87.8235 33.722L87.1608 36.4097C86.7189 38.1613 86.4645 39.104 86.3976 39.2377C86.2235 39.5988 85.9356 39.7793 85.5339 39.7793C85.3599 39.7793 85.2193 39.7392 85.1122 39.659C85.0051 39.5787 84.9314 39.4985 84.8913 39.4183C84.8511 39.338 84.8377 39.2712 84.8511 39.2177C84.8511 39.0439 85.1055 37.9474 85.6143 35.9283C86.1365 33.8691 86.3976 32.7927 86.3976 32.6991C86.4377 32.4985 86.4578 32.318 86.4578 32.1575C86.4578 31.6761 86.2905 31.4355 85.9557 31.4355C85.6611 31.4355 85.4134 31.6227 85.2126 31.9971C85.0118 32.3715 84.8578 32.7793 84.7507 33.2206C84.6435 33.6618 84.5632 33.9025 84.5097 33.9426C84.4829 33.9694 84.3758 33.9827 84.1883 33.9827H83.9071C83.8268 33.9025 83.7866 33.8423 83.7866 33.8022Z" fill="black"></path></g><g clip-path="url(#clip4)"><path d="M176.332 51.8221L176.067 51.9255C175.878 51.9944 175.606 52.0634 175.254 52.1323C174.901 52.2012 174.508 52.2494 174.074 52.277H173.688V51.3259H174.074C174.712 51.2983 175.301 51.1949 175.844 51.0157C176.386 50.8365 176.766 50.6711 176.983 50.5195C177.2 50.3678 177.389 50.2162 177.552 50.0646C177.579 50.0232 177.661 50.0025 177.796 50.0025C177.918 50.0025 178.033 50.0439 178.142 50.1266V56.309L178.162 62.5121C178.257 62.6086 178.339 62.6707 178.406 62.6982C178.474 62.7258 178.637 62.7534 178.894 62.7809C179.152 62.8085 179.572 62.8223 180.155 62.8223H180.684V63.7734H180.46C180.176 63.7321 179.098 63.7114 177.227 63.7114C175.383 63.7114 174.318 63.7321 174.034 63.7734H173.79V62.8223H174.318C174.617 62.8223 174.874 62.8223 175.091 62.8223C175.308 62.8223 175.478 62.8154 175.6 62.8016C175.722 62.7878 175.83 62.7672 175.925 62.7396C176.02 62.712 176.074 62.6982 176.088 62.6982C176.101 62.6982 176.142 62.6638 176.21 62.5948C176.278 62.5259 176.318 62.4984 176.332 62.5121V51.8221Z" fill="black"></path><path d="M184.385 54.903C184.019 54.903 183.728 54.7789 183.511 54.5308C183.294 54.2827 183.186 53.9794 183.186 53.621C183.186 52.6423 183.545 51.7945 184.263 51.0777C184.982 50.3609 185.877 50.0025 186.948 50.0025C188.182 50.0025 189.212 50.3885 190.039 51.1605C190.866 51.9324 191.287 52.9318 191.3 54.1586C191.3 54.7514 191.165 55.3165 190.893 55.8541C190.622 56.3917 190.297 56.8604 189.917 57.2602C189.538 57.6599 188.995 58.17 188.29 58.7903C187.802 59.2176 187.124 59.8517 186.257 60.6926L185.057 61.8505L186.602 61.8712C188.731 61.8712 189.863 61.8367 189.999 61.7678C190.094 61.7402 190.256 61.1268 190.487 59.9275V59.8655H191.3V59.9275C191.287 59.9689 191.199 60.5961 191.036 61.8091C190.873 63.0222 190.771 63.6563 190.731 63.7114V63.7734H183.186V63.3806V63.1324C183.186 63.036 183.226 62.9326 183.308 62.8223C183.389 62.712 183.592 62.4708 183.918 62.0986C184.311 61.6575 184.65 61.2715 184.935 60.9407C185.057 60.8028 185.287 60.5478 185.626 60.1756C185.965 59.8034 186.195 59.5484 186.318 59.4106C186.44 59.2727 186.636 59.0453 186.907 58.7282C187.178 58.4112 187.368 58.1769 187.477 58.0252C187.585 57.8736 187.741 57.6668 187.945 57.4049C188.148 57.143 188.29 56.9225 188.372 56.7433C188.453 56.564 188.555 56.3642 188.677 56.1436C188.799 55.9231 188.887 55.7025 188.941 55.482C188.995 55.2614 189.043 55.0546 189.083 54.8616C189.124 54.6687 189.144 54.4412 189.144 54.1793C189.144 53.3109 188.914 52.5596 188.453 51.9255C187.992 51.2914 187.334 50.9744 186.48 50.9744C186.033 50.9744 185.64 51.0915 185.301 51.3259C184.962 51.5602 184.724 51.7877 184.589 52.0082C184.453 52.2288 184.385 52.3597 184.385 52.4011C184.385 52.4149 184.419 52.4218 184.487 52.4218C184.731 52.4218 184.982 52.5182 185.24 52.7112C185.497 52.9042 185.626 53.2213 185.626 53.6624C185.626 54.007 185.518 54.2965 185.301 54.5308C185.084 54.7651 184.779 54.8892 184.385 54.903Z" fill="black"></path><path d="M193.029 60.4853C193.029 58.9827 193.612 57.6318 194.778 56.4326C195.944 55.2333 197.205 54.6337 198.561 54.6337C199.32 54.6337 199.916 54.7991 200.35 55.1299C200.784 55.4607 201.008 55.895 201.021 56.4326C201.021 56.8323 200.893 57.17 200.635 57.4457C200.377 57.7214 200.052 57.8662 199.659 57.8799C199.401 57.8799 199.198 57.811 199.049 57.6732C198.9 57.5353 198.825 57.3286 198.825 57.0529C198.825 56.7772 198.9 56.5428 199.049 56.3498C199.198 56.1569 199.347 56.0121 199.496 55.9156C199.645 55.8191 199.74 55.7778 199.781 55.7916H199.801C199.801 55.764 199.761 55.7226 199.679 55.6675C199.598 55.6124 199.455 55.5572 199.252 55.5021C199.049 55.447 198.818 55.4194 198.561 55.4194C198.154 55.4194 197.767 55.5159 197.401 55.7089C197.117 55.8329 196.825 56.0466 196.527 56.3498C195.93 56.9564 195.496 57.811 195.225 58.9138C194.954 60.0166 194.812 60.8161 194.798 61.3123C194.798 61.9464 194.974 62.422 195.327 62.739C195.625 63.0699 196.018 63.2353 196.507 63.2353H196.588C198.106 63.2353 199.361 62.6494 200.35 61.4777C200.472 61.3399 200.554 61.271 200.594 61.271C200.649 61.271 200.737 61.333 200.859 61.4571C200.981 61.5811 201.049 61.6776 201.062 61.7466C201.076 61.8155 201.015 61.9189 200.879 62.0567C200.744 62.1946 200.547 62.3875 200.289 62.6357C200.032 62.8838 199.727 63.0906 199.374 63.256C199.022 63.4214 198.588 63.5937 198.073 63.7729C197.557 63.9521 197.015 64.0279 196.446 64.0003C195.429 64.0003 194.608 63.6695 193.985 63.0078C193.361 62.3462 193.042 61.5053 193.029 60.4853Z" fill="black"></path><path d="M201.571 57.8402C201.584 57.7575 201.605 57.6472 201.632 57.5094C201.659 57.3715 201.74 57.1096 201.876 56.7236C202.011 56.3377 202.147 56.0137 202.283 55.7518C202.418 55.4899 202.635 55.2349 202.933 54.9868C203.232 54.7386 203.53 54.6215 203.828 54.6353C204.127 54.649 204.418 54.6973 204.703 54.78C204.988 54.8627 205.191 54.9868 205.313 55.1522C205.435 55.3176 205.543 55.4692 205.638 55.6071C205.733 55.7449 205.787 55.8759 205.801 55.9999L205.842 56.1447C205.842 56.1723 205.848 56.186 205.862 56.186L206.086 55.9586C206.899 55.0764 207.855 54.6353 208.953 54.6353C209.184 54.6353 209.394 54.649 209.584 54.6766C209.774 54.7042 209.95 54.7524 210.113 54.8214C210.275 54.8903 210.404 54.9592 210.499 55.0281C210.594 55.097 210.696 55.1798 210.804 55.2762C210.912 55.3727 210.98 55.4623 211.007 55.5451C211.035 55.6278 211.089 55.7174 211.17 55.8139C211.251 55.9103 211.279 55.9931 211.251 56.062C211.224 56.1309 211.245 56.1929 211.312 56.2481C211.38 56.3032 211.394 56.3515 211.353 56.3928L211.516 56.186C212.37 55.1522 213.38 54.6353 214.546 54.6353C215.278 54.6353 215.868 54.8214 216.315 55.1935C216.763 55.5657 216.993 56.1102 217.007 56.827C217.007 57.53 216.749 58.619 216.234 60.094C215.719 61.569 215.461 62.4512 215.461 62.7407C215.475 62.9336 215.509 63.0646 215.563 63.1335C215.617 63.2024 215.719 63.2369 215.868 63.2369C216.248 63.2369 216.6 63.0301 216.926 62.6166C217.251 62.2031 217.515 61.6379 217.719 60.9211C217.759 60.7694 217.8 60.6798 217.841 60.6523C217.881 60.6247 217.99 60.6109 218.166 60.6109C218.437 60.6109 218.573 60.6661 218.573 60.7763C218.573 60.7901 218.546 60.8935 218.492 61.0865C218.383 61.4862 218.234 61.8791 218.044 62.2651C217.854 62.6511 217.543 63.037 217.109 63.423C216.675 63.809 216.207 63.9951 215.705 63.9813C215.068 63.9813 214.607 63.7952 214.322 63.423C214.038 63.0508 213.895 62.6648 213.895 62.2651C213.895 62.0032 214.139 61.1761 214.627 59.7838C215.116 58.3916 215.366 57.344 215.38 56.6409C215.38 55.8276 215.082 55.421 214.485 55.421H214.383C213.217 55.421 212.234 56.1171 211.434 57.5094L211.292 57.7575L210.621 60.5282C210.174 62.334 209.916 63.3058 209.848 63.4437C209.672 63.8159 209.38 64.002 208.974 64.002C208.797 64.002 208.655 63.9537 208.547 63.8572C208.438 63.7607 208.364 63.678 208.323 63.6091C208.282 63.5402 208.262 63.4712 208.262 63.4023C208.262 63.2507 208.492 62.2651 208.953 60.4455L209.685 57.4267C209.726 57.2199 209.746 56.958 209.746 56.6409C209.746 55.8276 209.448 55.421 208.852 55.421H208.75C207.584 55.421 206.601 56.1171 205.801 57.5094L205.659 57.7575L204.988 60.5282C204.54 62.334 204.282 63.3058 204.215 63.4437C204.038 63.8159 203.747 64.002 203.34 64.002C203.164 64.002 203.022 63.9606 202.913 63.8779C202.805 63.7952 202.73 63.7125 202.689 63.6298C202.649 63.5471 202.635 63.4781 202.649 63.423C202.649 63.2438 202.906 62.1135 203.422 60.032C203.95 57.9091 204.215 56.7995 204.215 56.703C204.255 56.4962 204.276 56.3101 204.276 56.1447C204.276 55.6484 204.106 55.4003 203.767 55.4003C203.469 55.4003 203.218 55.5933 203.015 55.9793C202.811 56.3652 202.655 56.7857 202.547 57.2406C202.439 57.6955 202.357 57.9436 202.303 57.9849C202.276 58.0125 202.167 58.0263 201.978 58.0263H201.693C201.611 57.9436 201.571 57.8816 201.571 57.8402Z" fill="black"></path></g><path d="M66.2936 114.355C66.2936 114.68 66.1865 114.952 65.9722 115.169C65.758 115.386 65.4969 115.494 65.1889 115.494H65.0483C65.6643 116.565 66.4811 117.101 67.4987 117.101C68.436 117.101 69.1189 116.694 69.5474 115.881C69.8018 115.433 69.929 114.565 69.929 113.277C69.929 111.88 69.7482 110.938 69.3867 110.449C69.0385 110.002 68.6502 109.778 68.2218 109.778H68.1012C67.0568 109.778 66.2668 110.239 65.7312 111.161C65.6777 111.256 65.6308 111.311 65.5906 111.324C65.5504 111.338 65.45 111.351 65.2893 111.365C65.0617 111.365 64.9345 111.324 64.9077 111.243C64.881 111.188 64.8676 110.002 64.8676 107.683V105.059C64.8676 104.381 64.901 104.042 64.968 104.042C64.9948 104.015 65.0215 104.001 65.0483 104.001C65.0617 104.001 65.2023 104.055 65.4701 104.164C65.7379 104.272 66.1061 104.381 66.5748 104.489C67.0434 104.598 67.5456 104.652 68.0812 104.652C69.0318 104.652 69.9424 104.462 70.8127 104.083C70.9198 104.028 71.0069 104.001 71.0738 104.001C71.1809 104.001 71.2345 104.123 71.2345 104.367V104.632C70.1365 105.947 68.764 106.605 67.1171 106.605C66.702 106.605 66.3271 106.564 65.9923 106.483L65.7915 106.442V109.941C66.0459 109.751 66.2467 109.602 66.394 109.493C66.5413 109.385 66.7823 109.276 67.1171 109.168C67.4518 109.059 67.7933 109.005 68.1414 109.005C69.226 109.005 70.1432 109.446 70.8931 110.327C71.6429 111.209 72.0178 112.253 72.0178 113.46C72.0178 114.708 71.5893 115.772 70.7324 116.654C69.8754 117.535 68.831 117.983 67.5991 117.996C66.5145 117.996 65.6442 117.63 64.9881 116.898C64.332 116.165 64.0039 115.338 64.0039 114.416C64.0039 114.091 64.0776 113.833 64.2248 113.643C64.3721 113.453 64.5261 113.331 64.6868 113.277C64.8475 113.223 65.0015 113.196 65.1487 113.196C65.4835 113.196 65.758 113.311 65.9722 113.541C66.1865 113.772 66.2936 114.043 66.2936 114.355Z" fill="black"></path><path d="M74.6089 116.328C74.6089 116.003 74.7227 115.718 74.9503 115.474C75.178 115.23 75.4658 115.108 75.814 115.108C76.1353 115.108 76.4165 115.216 76.6576 115.433C76.8986 115.65 77.0258 115.942 77.0392 116.308C77.0392 116.647 76.9254 116.939 76.6977 117.183C76.4701 117.427 76.1822 117.549 75.8341 117.549C75.4859 117.549 75.198 117.434 74.9704 117.203C74.7428 116.972 74.6223 116.681 74.6089 116.328Z" fill="black"></path><path d="M80.8149 108.822C80.4534 108.822 80.1655 108.7 79.9512 108.456C79.737 108.212 79.6299 107.914 79.6299 107.561C79.6299 106.598 79.9847 105.764 80.6944 105.059C81.4041 104.354 82.2878 104.001 83.3456 104.001C84.5641 104.001 85.5817 104.381 86.3985 105.141C87.2153 105.9 87.6304 106.883 87.6438 108.09C87.6438 108.673 87.5099 109.229 87.2421 109.758C86.9743 110.287 86.6529 110.748 86.278 111.141C85.9031 111.535 85.3675 112.036 84.6712 112.647C84.1892 113.067 83.5197 113.691 82.6627 114.518L81.4777 115.657L83.0042 115.677C85.1064 115.677 86.2244 115.644 86.3583 115.576C86.4521 115.549 86.6128 114.945 86.8404 113.765V113.704H87.6438V113.765C87.6304 113.806 87.5434 114.423 87.3827 115.616C87.222 116.81 87.1216 117.434 87.0814 117.488V117.549H79.6299V117.162V116.918C79.6299 116.823 79.6701 116.722 79.7504 116.613C79.8307 116.505 80.0316 116.267 80.3529 115.901C80.7413 115.467 81.076 115.088 81.3572 114.762C81.4777 114.626 81.7053 114.376 82.0401 114.009C82.3748 113.643 82.6025 113.392 82.723 113.257C82.8435 113.121 83.0376 112.897 83.3054 112.586C83.5732 112.274 83.7607 112.043 83.8678 111.894C83.9749 111.745 84.1289 111.541 84.3298 111.284C84.5306 111.026 84.6712 110.809 84.7516 110.633C84.8319 110.456 84.9323 110.26 85.0528 110.043C85.1733 109.826 85.2604 109.609 85.3139 109.392C85.3675 109.175 85.4144 108.972 85.4545 108.782C85.4947 108.592 85.5148 108.368 85.5148 108.11C85.5148 107.256 85.2871 106.517 84.8319 105.893C84.3766 105.269 83.7272 104.957 82.8836 104.957C82.4418 104.957 82.0535 105.073 81.7187 105.303C81.384 105.534 81.1496 105.758 81.0157 105.975C80.8818 106.192 80.8149 106.32 80.8149 106.361C80.8149 106.375 80.8484 106.381 80.9153 106.381C81.1563 106.381 81.4041 106.476 81.6585 106.666C81.9129 106.856 82.0401 107.168 82.0401 107.602C82.0401 107.941 81.933 108.226 81.7187 108.456C81.5045 108.687 81.2032 108.809 80.8149 108.822Z" fill="black"></path><path d="M89.3511 114.314C89.3511 112.836 89.9268 111.507 91.0784 110.327C92.2299 109.147 93.4752 108.557 94.8142 108.557C95.564 108.557 96.1532 108.72 96.5817 109.045C97.0101 109.371 97.2311 109.798 97.2445 110.327C97.2445 110.72 97.1173 111.052 96.8629 111.324C96.6084 111.595 96.2871 111.737 95.8988 111.751C95.6444 111.751 95.4435 111.683 95.2962 111.547C95.1489 111.412 95.0753 111.208 95.0753 110.937C95.0753 110.666 95.1489 110.435 95.2962 110.246C95.4435 110.056 95.5908 109.913 95.7381 109.818C95.8854 109.723 95.9791 109.683 96.0193 109.696H96.0394C96.0394 109.669 95.9992 109.629 95.9189 109.574C95.8385 109.52 95.6979 109.466 95.4971 109.412C95.2962 109.357 95.0686 109.33 94.8142 109.33C94.4125 109.33 94.0309 109.425 93.6693 109.615C93.3882 109.737 93.1003 109.947 92.8057 110.246C92.2165 110.842 91.7881 111.683 91.5203 112.768C91.2525 113.853 91.1119 114.639 91.0985 115.128C91.0985 115.751 91.2725 116.219 91.6207 116.531C91.9153 116.857 92.3036 117.019 92.7856 117.019H92.8659C94.3656 117.019 95.6042 116.443 96.5817 115.29C96.7022 115.155 96.7825 115.087 96.8227 115.087C96.8762 115.087 96.9633 115.148 97.0838 115.27C97.2043 115.392 97.2712 115.487 97.2846 115.555C97.298 115.623 97.2378 115.724 97.1039 115.86C96.97 115.995 96.7758 116.185 96.5214 116.429C96.267 116.673 95.9657 116.877 95.6176 117.04C95.2694 117.202 94.841 117.372 94.3321 117.548C93.8233 117.724 93.2877 117.799 92.7253 117.772C91.7211 117.772 90.911 117.446 90.2951 116.796C89.6791 116.145 89.3645 115.317 89.3511 114.314Z" fill="black"></path><path d="M97.7866 111.71C97.8 111.628 97.8201 111.52 97.8469 111.384C97.8737 111.249 97.954 110.991 98.0879 110.611C98.2218 110.232 98.3557 109.913 98.4896 109.655C98.6235 109.398 98.8377 109.147 99.1323 108.903C99.4269 108.658 99.7215 108.543 100.016 108.557C100.311 108.57 100.599 108.618 100.88 108.699C101.161 108.781 101.362 108.903 101.482 109.065C101.603 109.228 101.71 109.377 101.804 109.513C101.897 109.648 101.951 109.777 101.964 109.899L102.004 110.042C102.004 110.069 102.011 110.082 102.025 110.082L102.245 109.859C103.049 108.991 103.993 108.557 105.077 108.557C105.305 108.557 105.513 108.57 105.7 108.597C105.888 108.625 106.062 108.672 106.222 108.74C106.383 108.808 106.51 108.875 106.604 108.943C106.698 109.011 106.798 109.092 106.905 109.187C107.012 109.282 107.079 109.37 107.106 109.452C107.133 109.533 107.186 109.621 107.267 109.716C107.347 109.811 107.374 109.893 107.347 109.96C107.32 110.028 107.34 110.089 107.407 110.143C107.474 110.198 107.488 110.245 107.447 110.286L107.608 110.082C108.452 109.065 109.449 108.557 110.601 108.557C111.324 108.557 111.906 108.74 112.348 109.106C112.79 109.472 113.018 110.008 113.031 110.713C113.031 111.405 112.777 112.476 112.268 113.927C111.759 115.378 111.505 116.246 111.505 116.531C111.518 116.721 111.552 116.849 111.605 116.917C111.659 116.985 111.759 117.019 111.906 117.019C112.281 117.019 112.629 116.815 112.951 116.409C113.272 116.002 113.533 115.446 113.734 114.741C113.774 114.591 113.814 114.503 113.855 114.476C113.895 114.449 114.002 114.435 114.176 114.435C114.444 114.435 114.578 114.49 114.578 114.598C114.578 114.612 114.551 114.713 114.497 114.903C114.39 115.297 114.243 115.683 114.055 116.063C113.868 116.443 113.56 116.822 113.132 117.202C112.703 117.582 112.241 117.765 111.746 117.751C111.116 117.751 110.661 117.568 110.38 117.202C110.099 116.836 109.958 116.456 109.958 116.063C109.958 115.805 110.199 114.991 110.681 113.622C111.163 112.252 111.411 111.222 111.424 110.53C111.424 109.73 111.13 109.33 110.541 109.33H110.44C109.289 109.33 108.318 110.015 107.528 111.384L107.387 111.628L106.724 114.354C106.283 116.131 106.028 117.087 105.961 117.222C105.787 117.588 105.499 117.771 105.098 117.771C104.923 117.771 104.783 117.724 104.676 117.629C104.569 117.534 104.495 117.453 104.455 117.385C104.415 117.317 104.395 117.249 104.395 117.182C104.395 117.032 104.622 116.063 105.077 114.273L105.801 111.303C105.841 111.099 105.861 110.842 105.861 110.53C105.861 109.73 105.566 109.33 104.977 109.33H104.877C103.725 109.33 102.754 110.015 101.964 111.384L101.824 111.628L101.161 114.354C100.719 116.131 100.465 117.087 100.398 117.222C100.224 117.588 99.9357 117.771 99.534 117.771C99.3599 117.771 99.2193 117.731 99.1122 117.649C99.0051 117.568 98.9315 117.487 98.8913 117.405C98.8511 117.324 98.8377 117.256 98.8511 117.202C98.8511 117.026 99.1055 115.914 99.6144 113.866C100.137 111.778 100.398 110.686 100.398 110.591C100.438 110.388 100.458 110.204 100.458 110.042C100.458 109.554 100.291 109.309 99.9558 109.309C99.6612 109.309 99.4135 109.499 99.2127 109.879C99.0118 110.259 98.8578 110.672 98.7507 111.12C98.6436 111.567 98.5632 111.811 98.5097 111.852C98.4829 111.879 98.3758 111.893 98.1883 111.893H97.9071C97.8268 111.811 97.7866 111.75 97.7866 111.71Z" fill="black"></path><path d="M61.6719 81.4746C61.6719 80.3337 61.9213 79.1313 62.4203 77.8673C62.9192 76.6034 63.5972 75.5128 64.4544 74.5956C65.3115 73.6784 66.2007 73.1526 67.1218 73.0184C67.1346 73.0184 67.1857 73.0184 67.2753 73.0184C67.3648 73.0184 67.4416 73.0128 67.5056 73.0016C68.1964 73.0464 68.7337 73.3204 69.1175 73.8238C69.6164 74.4949 69.8659 75.3953 69.8659 76.5251C69.8659 77.8114 69.5781 79.1201 69.0024 80.4512C68.4267 81.7822 67.6911 82.8728 66.7955 83.7229C65.9 84.573 65.0429 84.998 64.2241 84.998H64.0898C63.6292 84.998 63.2326 84.8862 62.9 84.6625C62.5674 84.4388 62.3179 84.1424 62.1516 83.7732C61.9853 83.4041 61.8638 83.0294 61.787 82.6491C61.7103 82.2688 61.6719 81.8773 61.6719 81.4746ZM68.3499 75.3338C68.3499 74.1929 68.0109 73.6224 67.3329 73.6224C66.8723 73.6224 66.4245 73.8741 65.9896 74.3774C65.5546 74.8808 65.1964 75.4513 64.9149 76.0888C64.6335 76.7264 64.416 77.2857 64.2625 77.7666C64.109 78.2476 64.0258 78.5273 64.013 78.6056C64.6399 78.6167 65.2604 78.6223 65.8744 78.6223L67.7358 78.6056C67.7486 78.5944 67.7998 78.4098 67.8894 78.0519C67.9789 77.6939 68.0813 77.2465 68.1964 76.7096C68.3115 76.1727 68.3627 75.7141 68.3499 75.3338ZM63.1687 82.6155C63.1687 83.8012 63.5077 84.394 64.1857 84.394C64.3776 84.394 64.5823 84.3381 64.7998 84.2262C65.0173 84.1144 65.2796 83.9019 65.5866 83.5887C65.8936 83.2755 66.2007 82.7889 66.5077 82.129C66.8147 81.469 67.1218 80.6525 67.4288 79.6794L67.5248 79.3941H63.7827C63.7827 79.4277 63.7252 79.6402 63.61 80.0317C63.4949 80.4232 63.3926 80.8594 63.303 81.3404C63.2135 81.8214 63.1687 82.2464 63.1687 82.6155Z" fill="black"></path><g clip-path="url(#clip5)"><path d="M193.563 39.0377C193.563 37.8433 193.994 36.7081 194.856 35.6319C195.717 34.5558 196.687 34.0118 197.764 34C198.342 34 198.852 34.2897 199.294 34.8692C199.475 34.5144 199.736 34.337 200.076 34.337C200.224 34.337 200.354 34.3843 200.467 34.4789C200.581 34.5735 200.637 34.6918 200.637 34.8337C200.637 34.9874 200.428 35.9335 200.008 37.6718C199.589 39.4102 199.373 40.3917 199.362 40.6164C199.362 40.912 199.402 41.1072 199.481 41.2018C199.561 41.2964 199.68 41.3496 199.838 41.3614C199.94 41.3496 200.054 41.2964 200.178 41.2018C200.416 40.9653 200.649 40.3976 200.876 39.4989C200.944 39.2624 201 39.1382 201.046 39.1264C201.068 39.1146 201.125 39.1086 201.216 39.1086H201.284C201.499 39.1086 201.607 39.1619 201.607 39.2683C201.607 39.3392 201.578 39.4989 201.522 39.7472C201.465 39.9956 201.352 40.3149 201.182 40.7051C201.012 41.0953 200.83 41.391 200.637 41.592C200.49 41.7458 200.309 41.8699 200.093 41.9645C200.003 41.9882 199.867 42 199.685 42C199.3 42 198.977 41.9113 198.716 41.7339C198.455 41.5565 198.285 41.3732 198.206 41.184L198.104 40.918C198.092 40.9061 198.07 40.912 198.036 40.9357C198.013 40.9593 197.99 40.983 197.968 41.0067C197.299 41.6689 196.619 42 195.927 42C195.304 42 194.754 41.7635 194.278 41.2905C193.802 40.8174 193.563 40.0665 193.563 39.0377ZM198.971 36.0044C198.971 35.9335 198.943 35.8034 198.886 35.6142C198.829 35.425 198.699 35.218 198.495 34.9933C198.291 34.7687 198.03 34.6504 197.713 34.6386C197.316 34.6386 196.936 34.8219 196.573 35.1885C196.211 35.5551 195.927 36.034 195.723 36.6253C195.394 37.5595 195.162 38.5292 195.026 39.5344C195.026 39.5698 195.026 39.6349 195.026 39.7295C195.026 39.8241 195.02 39.895 195.009 39.9424C195.009 40.4745 195.111 40.8411 195.315 41.0421C195.519 41.2432 195.763 41.3496 196.046 41.3614C196.477 41.3614 196.902 41.1663 197.322 40.7761C197.741 40.3858 197.99 40.0843 198.07 39.8714C198.092 39.8241 198.245 39.1914 198.529 37.9734C198.812 36.7554 198.96 36.099 198.971 36.0044Z" fill="black"></path></g><g clip-path="url(#clip6)"><path d="M85.192 125.802C85.192 125.688 85.2138 125.558 85.2573 125.41C85.3008 125.263 85.366 125.189 85.453 125.189C85.4639 125.189 85.8553 125.161 86.6273 125.104C87.3993 125.047 87.7962 125.013 87.8179 125.002C87.9484 125.002 88.0136 125.053 88.0136 125.155C88.0136 125.257 87.8288 126.069 87.4591 127.589C87.3721 127.975 87.2797 128.372 87.1818 128.781C87.084 129.189 87.0024 129.496 86.9372 129.7L86.872 130.023C86.872 130.057 86.9046 130.04 86.9698 129.972C87.5026 129.518 88.0517 129.291 88.6171 129.291C89.2912 129.291 89.8349 129.552 90.2481 130.074C90.6613 130.596 90.8733 131.254 90.8842 132.049C90.8842 133.308 90.4547 134.449 89.5957 135.47C88.7367 136.491 87.8125 137.002 86.823 137.002C86.2794 137.002 85.7846 136.786 85.3388 136.355C84.893 135.924 84.6647 135.226 84.6538 134.262V134.108C84.6538 133.87 84.6973 133.541 84.7843 133.121C84.8713 132.701 85.1377 131.584 85.5835 129.768C86.1271 127.532 86.399 126.347 86.399 126.21C86.399 126.074 86.1924 125.995 85.7792 125.972C85.7248 125.972 85.6813 125.972 85.6487 125.972H85.5672C85.4584 125.972 85.3878 125.972 85.3551 125.972C85.3225 125.972 85.2845 125.955 85.241 125.921C85.1975 125.887 85.1812 125.847 85.192 125.802ZM89.4815 131.283V131.181C89.4815 130.341 89.1499 129.921 88.4866 129.921C88.3018 129.921 88.1115 129.966 87.9158 130.057C87.7201 130.148 87.5407 130.267 87.3776 130.415C87.2145 130.562 87.0731 130.698 86.9535 130.823C86.8339 130.948 86.736 131.073 86.6599 131.198L86.5621 131.334L86.2196 132.798C85.9803 133.774 85.8607 134.466 85.8607 134.874C85.8607 135.419 85.9912 135.827 86.2522 136.1C86.4261 136.281 86.6436 136.372 86.9046 136.372C87.2634 136.372 87.6276 136.191 87.9973 135.827C88.2692 135.566 88.4866 135.249 88.6497 134.874C88.8128 134.5 88.9922 133.904 89.188 133.087C89.3837 132.27 89.4815 131.669 89.4815 131.283Z" fill="black"></path></g><g clip-path="url(#clip7)"><path d="M106.629 17.997C106.629 16.7137 107.158 15.5599 108.217 14.5356C109.276 13.5113 110.422 12.9992 111.653 12.9992C112.343 12.9992 112.884 13.1405 113.278 13.423C113.672 13.7056 113.876 14.0765 113.888 14.5356C113.888 14.877 113.771 15.1655 113.537 15.401C113.303 15.6364 113.008 15.7601 112.65 15.7718C112.416 15.7718 112.232 15.713 112.096 15.5952C111.961 15.4775 111.893 15.3009 111.893 15.0654C111.893 14.83 111.961 14.6298 112.096 14.465C112.232 14.3002 112.367 14.1765 112.503 14.0941C112.638 14.0117 112.724 13.9764 112.761 13.9882H112.78C112.78 13.9646 112.743 13.9293 112.669 13.8822C112.595 13.8351 112.466 13.788 112.281 13.7409C112.096 13.6938 111.887 13.6703 111.653 13.6703C111.284 13.6703 110.933 13.7527 110.6 13.9175C110.342 14.0235 110.077 14.206 109.806 14.465C109.264 14.983 108.87 15.713 108.624 16.6548C108.377 17.5967 108.248 18.2796 108.236 18.7034C108.236 19.245 108.396 19.6511 108.716 19.9219C108.987 20.2045 109.344 20.3458 109.787 20.3458H109.861C111.24 20.3458 112.38 19.8454 113.278 18.8447C113.389 18.7269 113.463 18.6681 113.5 18.6681C113.549 18.6681 113.629 18.7211 113.74 18.827C113.851 18.933 113.913 19.0154 113.925 19.0743C113.937 19.1331 113.882 19.2214 113.759 19.3392C113.636 19.4569 113.457 19.6217 113.223 19.8336C112.989 20.0456 112.712 20.2222 112.392 20.3634C112.072 20.5047 111.678 20.6519 111.21 20.8049C110.742 20.958 110.249 21.0227 109.732 20.9992C108.808 20.9992 108.063 20.7166 107.497 20.1515C106.931 19.5864 106.641 18.8682 106.629 17.997Z" fill="black"></path></g><defs><clipPath id="clip0"><rect width="12" height="11" fill="white" transform="translate(0 79)"></rect></clipPath><clipPath id="clip1"><rect width="11" height="10" fill="white" transform="translate(178)"></rect></clipPath><clipPath id="clip2"><rect width="10" height="10" fill="white" transform="translate(159 99)"></rect></clipPath><clipPath id="clip3"><rect width="52" height="14" fill="white" transform="translate(49 26)"></rect></clipPath><clipPath id="clip4"><rect width="47" height="14" fill="white" transform="translate(172 50)"></rect></clipPath><clipPath id="clip5"><rect width="9" height="8" fill="white" transform="translate(193 34)"></rect></clipPath><clipPath id="clip6"><rect width="7" height="12" fill="white" transform="translate(84 125)"></rect></clipPath><clipPath id="clip7"><rect width="8" height="8" fill="white" transform="translate(106 13)"></rect></clipPath></defs></svg> 