<?xml version="1.0" encoding="UTF-8"?> <svg xmlns="http://www.w3.org/2000/svg" width="230" height="205" viewBox="0 0 230 205" fill="none"><path d="M181.5 17.95H182.71V25H181.74L177.96 20.08V25H176.76V17.95H177.72L181.5 22.86V17.95ZM186.501 25.08C186.001 25.08 185.561 24.9767 185.181 24.77C184.807 24.5633 184.517 24.2667 184.311 23.88C184.104 23.4933 184.001 23.0433 184.001 22.53C184.001 22.0167 184.104 21.57 184.311 21.19C184.517 20.8033 184.807 20.5067 185.181 20.3C185.561 20.0933 186.001 19.99 186.501 19.99C187.001 19.99 187.437 20.0933 187.811 20.3C188.191 20.5067 188.481 20.8033 188.681 21.19C188.887 21.57 188.991 22.0167 188.991 22.53C188.991 23.0433 188.887 23.4933 188.681 23.88C188.481 24.2667 188.191 24.5633 187.811 24.77C187.437 24.9767 187.001 25.08 186.501 25.08ZM186.491 24.11C186.897 24.11 187.207 23.9767 187.421 23.71C187.634 23.4433 187.741 23.05 187.741 22.53C187.741 22.0167 187.634 21.6267 187.421 21.36C187.207 21.0867 186.901 20.95 186.501 20.95C186.101 20.95 185.791 21.0867 185.571 21.36C185.357 21.6267 185.251 22.0167 185.251 22.53C185.251 23.05 185.357 23.4433 185.571 23.71C185.784 23.9767 186.091 24.11 186.491 24.11ZM192.643 24.14C192.79 24.14 192.943 24.13 193.103 24.11L193.043 25.04C192.843 25.06 192.66 25.07 192.493 25.07C191.807 25.07 191.3 24.9133 190.973 24.6C190.647 24.28 190.483 23.8067 190.483 23.18V21.05H189.543V20.11H190.483V18.65H191.733V20.11H193.023V21.05H191.733V23.16C191.733 23.8133 192.037 24.14 192.643 24.14ZM201.57 17.95V25H200.33V24.21C200.183 24.4833 199.97 24.6967 199.69 24.85C199.416 25.0033 199.103 25.08 198.75 25.08C198.33 25.08 197.953 24.9733 197.62 24.76C197.293 24.5467 197.036 24.2467 196.85 23.86C196.67 23.4667 196.58 23.0167 196.58 22.51C196.58 22.0033 196.67 21.56 196.85 21.18C197.036 20.8 197.293 20.5067 197.62 20.3C197.946 20.0933 198.323 19.99 198.75 19.99C199.103 19.99 199.416 20.0633 199.69 20.21C199.963 20.3567 200.173 20.5633 200.32 20.83V17.95H201.57ZM199.08 24.11C199.48 24.11 199.786 23.9733 200 23.7C200.22 23.4267 200.33 23.0367 200.33 22.53C200.33 22.0233 200.22 21.6367 200 21.37C199.786 21.0967 199.483 20.96 199.09 20.96C198.69 20.96 198.38 21.0933 198.16 21.36C197.94 21.6267 197.83 22.01 197.83 22.51C197.83 23.0167 197.94 23.41 198.16 23.69C198.38 23.97 198.686 24.11 199.08 24.11ZM206.225 21.03L205.495 21.1C204.669 21.1867 204.255 21.6067 204.255 22.36V25H203.005V20.11H204.195V20.97C204.449 20.3833 204.972 20.0633 205.765 20.01L206.145 19.98L206.225 21.03ZM209.064 19.99C209.751 19.99 210.261 20.1567 210.594 20.49C210.927 20.8233 211.094 21.3367 211.094 22.03V25H209.904V24.25C209.791 24.51 209.611 24.7133 209.364 24.86C209.124 25.0067 208.844 25.08 208.524 25.08C208.197 25.08 207.901 25.0133 207.634 24.88C207.367 24.7467 207.157 24.5633 207.004 24.33C206.851 24.0967 206.774 23.8367 206.774 23.55C206.774 23.19 206.864 22.9067 207.044 22.7C207.231 22.4933 207.531 22.3433 207.944 22.25C208.357 22.1567 208.927 22.11 209.654 22.11H209.904V21.88C209.904 21.5467 209.831 21.3067 209.684 21.16C209.544 21.0133 209.307 20.94 208.974 20.94C208.714 20.94 208.441 20.9867 208.154 21.08C207.874 21.1667 207.597 21.29 207.324 21.45L206.974 20.59C207.247 20.4167 207.577 20.2733 207.964 20.16C208.351 20.0467 208.717 19.99 209.064 19.99ZM208.774 24.18C209.107 24.18 209.377 24.07 209.584 23.85C209.797 23.6233 209.904 23.3333 209.904 22.98V22.77H209.724C209.277 22.77 208.931 22.79 208.684 22.83C208.437 22.87 208.261 22.94 208.154 23.04C208.047 23.14 207.994 23.2767 207.994 23.45C207.994 23.6633 208.067 23.84 208.214 23.98C208.361 24.1133 208.547 24.18 208.774 24.18ZM219.114 20.11H220.334L218.414 25H217.324L216.124 21.85L214.954 25H213.874L211.944 20.11H213.224L214.474 23.51L215.724 20.11H216.624L217.874 23.53L219.114 20.11ZM224.069 19.99C224.656 19.99 225.092 20.1567 225.379 20.49C225.666 20.8233 225.809 21.3267 225.809 22V25H224.559V22.07C224.559 21.69 224.486 21.4133 224.339 21.24C224.199 21.0667 223.976 20.98 223.669 20.98C223.309 20.98 223.019 21.0933 222.799 21.32C222.586 21.5467 222.479 21.85 222.479 22.23V25H221.229V20.11H222.449V20.84C222.616 20.5667 222.839 20.3567 223.119 20.21C223.399 20.0633 223.716 19.99 224.069 19.99ZM179.15 37.14C179.297 37.14 179.45 37.13 179.61 37.11L179.55 38.04C179.35 38.06 179.167 38.07 179 38.07C178.313 38.07 177.807 37.9133 177.48 37.6C177.153 37.28 176.99 36.8067 176.99 36.18V34.05H176.05V33.11H176.99V31.65H178.24V33.11H179.53V34.05H178.24V36.16C178.24 36.8133 178.543 37.14 179.15 37.14ZM182.721 38.08C182.221 38.08 181.781 37.9767 181.401 37.77C181.028 37.5633 180.738 37.2667 180.531 36.88C180.325 36.4933 180.221 36.0433 180.221 35.53C180.221 35.0167 180.325 34.57 180.531 34.19C180.738 33.8033 181.028 33.5067 181.401 33.3C181.781 33.0933 182.221 32.99 182.721 32.99C183.221 32.99 183.658 33.0933 184.031 33.3C184.411 33.5067 184.701 33.8033 184.901 34.19C185.108 34.57 185.211 35.0167 185.211 35.53C185.211 36.0433 185.108 36.4933 184.901 36.88C184.701 37.2667 184.411 37.5633 184.031 37.77C183.658 37.9767 183.221 38.08 182.721 38.08ZM182.711 37.11C183.118 37.11 183.428 36.9767 183.641 36.71C183.855 36.4433 183.961 36.05 183.961 35.53C183.961 35.0167 183.855 34.6267 183.641 34.36C183.428 34.0867 183.121 33.95 182.721 33.95C182.321 33.95 182.011 34.0867 181.791 34.36C181.578 34.6267 181.471 35.0167 181.471 35.53C181.471 36.05 181.578 36.4433 181.791 36.71C182.005 36.9767 182.311 37.11 182.711 37.11ZM191.058 38.08C190.625 38.08 190.225 38.0267 189.858 37.92C189.498 37.8133 189.192 37.66 188.938 37.46L189.288 36.59C189.808 36.97 190.405 37.16 191.078 37.16C191.365 37.16 191.582 37.1133 191.728 37.02C191.882 36.9267 191.958 36.7933 191.958 36.62C191.958 36.4733 191.905 36.36 191.798 36.28C191.698 36.2 191.515 36.1267 191.248 36.06L190.448 35.88C189.995 35.78 189.658 35.6167 189.438 35.39C189.218 35.1633 189.108 34.87 189.108 34.51C189.108 34.21 189.192 33.9467 189.358 33.72C189.532 33.4867 189.768 33.3067 190.068 33.18C190.375 33.0533 190.728 32.99 191.128 32.99C191.475 32.99 191.808 33.0433 192.128 33.15C192.455 33.2567 192.742 33.4067 192.988 33.6L192.638 34.45C192.132 34.0833 191.625 33.9 191.118 33.9C190.845 33.9 190.632 33.95 190.478 34.05C190.325 34.15 190.248 34.29 190.248 34.47C190.248 34.6033 190.295 34.7133 190.388 34.8C190.488 34.8867 190.645 34.9533 190.858 35L191.688 35.19C192.175 35.2967 192.532 35.4667 192.758 35.7C192.985 35.9267 193.098 36.2267 193.098 36.6C193.098 37.0533 192.915 37.4133 192.548 37.68C192.182 37.9467 191.685 38.08 191.058 38.08ZM196.492 38.08C195.978 38.08 195.532 37.9767 195.152 37.77C194.778 37.5633 194.492 37.27 194.292 36.89C194.092 36.51 193.992 36.0667 193.992 35.56C193.992 35.0533 194.095 34.6067 194.302 34.22C194.515 33.8267 194.815 33.5233 195.202 33.31C195.588 33.0967 196.035 32.99 196.542 32.99C196.888 32.99 197.225 33.0467 197.552 33.16C197.885 33.2667 198.152 33.4133 198.352 33.6L197.992 34.48C197.785 34.3133 197.565 34.1867 197.332 34.1C197.105 34.0133 196.878 33.97 196.652 33.97C196.218 33.97 195.882 34.1067 195.642 34.38C195.402 34.6467 195.282 35.0333 195.282 35.54C195.282 36.04 195.402 36.4267 195.642 36.7C195.882 36.9667 196.218 37.1 196.652 37.1C196.878 37.1 197.105 37.0567 197.332 36.97C197.565 36.8833 197.785 36.7567 197.992 36.59L198.352 37.46C198.138 37.6533 197.865 37.8067 197.532 37.92C197.198 38.0267 196.852 38.08 196.492 38.08ZM201.395 32.99C202.081 32.99 202.591 33.1567 202.925 33.49C203.258 33.8233 203.425 34.3367 203.425 35.03V38H202.235V37.25C202.121 37.51 201.941 37.7133 201.695 37.86C201.455 38.0067 201.175 38.08 200.855 38.08C200.528 38.08 200.231 38.0133 199.965 37.88C199.698 37.7467 199.488 37.5633 199.335 37.33C199.181 37.0967 199.105 36.8367 199.105 36.55C199.105 36.19 199.195 35.9067 199.375 35.7C199.561 35.4933 199.861 35.3433 200.275 35.25C200.688 35.1567 201.258 35.11 201.985 35.11H202.235V34.88C202.235 34.5467 202.161 34.3067 202.015 34.16C201.875 34.0133 201.638 33.94 201.305 33.94C201.045 33.94 200.771 33.9867 200.485 34.08C200.205 34.1667 199.928 34.29 199.655 34.45L199.305 33.59C199.578 33.4167 199.908 33.2733 200.295 33.16C200.681 33.0467 201.048 32.99 201.395 32.99ZM201.105 37.18C201.438 37.18 201.708 37.07 201.915 36.85C202.128 36.6233 202.235 36.3333 202.235 35.98V35.77H202.055C201.608 35.77 201.261 35.79 201.015 35.83C200.768 35.87 200.591 35.94 200.485 36.04C200.378 36.14 200.325 36.2767 200.325 36.45C200.325 36.6633 200.398 36.84 200.545 36.98C200.691 37.1133 200.878 37.18 201.105 37.18ZM204.845 38V30.95H206.095V38H204.845ZM211.824 35.78H208.494C208.534 36.2333 208.671 36.57 208.904 36.79C209.137 37.01 209.471 37.12 209.904 37.12C210.444 37.12 210.937 36.9467 211.384 36.6L211.744 37.46C211.517 37.6467 211.231 37.7967 210.884 37.91C210.544 38.0233 210.201 38.08 209.854 38.08C209.054 38.08 208.421 37.8533 207.954 37.4C207.494 36.9467 207.264 36.3267 207.264 35.54C207.264 35.04 207.364 34.5967 207.564 34.21C207.764 33.8233 208.044 33.5233 208.404 33.31C208.771 33.0967 209.184 32.99 209.644 32.99C210.317 32.99 210.847 33.2067 211.234 33.64C211.627 34.0733 211.824 34.67 211.824 35.43V35.78ZM209.674 33.87C209.341 33.87 209.071 33.9767 208.864 34.19C208.664 34.4033 208.541 34.71 208.494 35.11H210.754C210.741 34.7033 210.641 34.3967 210.454 34.19C210.267 33.9767 210.007 33.87 209.674 33.87Z" fill="black"></path><path d="M18.0866 156L79 18.6989L139.913 156H18.0866Z" fill="#FF4081" fill-opacity="0.3" stroke="#FF4081" stroke-width="3"></path><path d="M45 156C45 150.415 43.4773 144.957 40.6269 140.325C37.7765 135.693 33.7281 132.098 29 130" stroke="#FF4081" stroke-width="2"></path><path d="M129 129C123.489 130.918 118.868 134.834 116.021 140.001C113.173 145.167 112.3 151.22 113.567 157" stroke="#FF4081" stroke-width="2"></path><path d="M91 43C87.4558 44.8758 83.326 45.9135 79.0822 45.9948C74.8383 46.0761 70.6516 45.1976 67 43.4597" stroke="#FF4081" stroke-width="2"></path><g clip-path="url(#clip0)"><path d="M3.05071 160.863C3.05071 161.109 3.27559 161.252 3.72535 161.293C3.90134 161.293 3.98934 161.35 3.98934 161.462C3.98934 161.473 3.97956 161.539 3.96001 161.662C3.93068 161.805 3.90134 161.898 3.87201 161.939C3.84268 161.98 3.77913 162 3.68135 162C3.6618 162 3.60313 162 3.50536 162C3.40759 162 3.24137 161.995 3.00672 161.985C2.77206 161.974 2.45918 161.969 2.06809 161.969C1.3739 161.969 0.929027 161.98 0.733479 162H0.616151C0.54771 161.928 0.513489 161.872 0.513489 161.831C0.533043 161.554 0.596596 161.375 0.704147 161.293H0.909472C1.59389 161.263 2.09253 161.007 2.40541 160.525C2.46407 160.464 3.34892 158.902 5.05996 155.839C6.771 152.777 7.64118 151.225 7.67052 151.184C7.73896 151.061 7.85629 151 8.0225 151H8.13983H8.38915C8.44782 151.092 8.47715 151.143 8.47715 151.154L8.8878 156.116C9.16156 159.424 9.30822 161.094 9.32778 161.124C9.37667 161.237 9.69443 161.293 10.2811 161.293C10.5255 161.293 10.6477 161.345 10.6477 161.447C10.6477 161.467 10.6331 161.539 10.6037 161.662C10.5744 161.816 10.5499 161.908 10.5304 161.939C10.5108 161.969 10.4424 161.99 10.3251 162C10.2957 162 10.2273 162 10.1197 162C10.0122 162 9.82153 161.995 9.54777 161.985C9.274 161.974 8.91713 161.969 8.47715 161.969C7.55808 161.969 6.95677 161.98 6.67322 162H6.49723C6.43857 161.939 6.40924 161.892 6.40924 161.862C6.40924 161.831 6.41901 161.739 6.43857 161.585C6.47768 161.452 6.50701 161.37 6.52656 161.339L6.58523 161.293H6.87855C7.40653 161.263 7.7194 161.176 7.81718 161.032L7.64118 158.728H4.15067L3.65202 159.619C3.25115 160.325 3.05071 160.74 3.05071 160.863ZM7.56785 158.006C7.56785 157.893 7.50919 157.094 7.39186 155.609C7.27453 154.124 7.20609 153.376 7.18654 153.366L6.79055 154.027C6.63412 154.303 6.32613 154.851 5.86659 155.67L4.54665 158.006L6.05725 158.021C7.06432 158.021 7.56785 158.016 7.56785 158.006Z" fill="black"></path></g><g clip-path="url(#clip1)"><path d="M76.348 0.673498C76.0872 0.673498 75.9326 0.668618 75.8843 0.658857C75.836 0.649096 75.8118 0.595411 75.8118 0.497803C75.8118 0.23426 75.8649 0.0732059 75.9712 0.0146408C75.9809 0.00487995 76.6089 -9.53674e-07 77.8552 -9.53674e-07C80.3575 -9.53674e-07 81.6763 0.0097599 81.8115 0.0292816C82.4202 0.12689 82.9274 0.34651 83.3332 0.68814C83.739 1.02977 83.9467 1.47877 83.9563 2.03514C83.9563 2.65983 83.6762 3.22108 83.1158 3.71889C82.5554 4.21669 81.913 4.55344 81.1884 4.72914L81.0434 4.77306C81.6618 4.86091 82.169 5.08541 82.5651 5.44656C82.9612 5.80771 83.1641 6.25671 83.1738 6.79356C83.1738 7.5061 82.826 8.19424 82.1303 8.85798C81.4347 9.52172 80.5797 9.89751 79.5652 9.98536C79.4976 9.99512 78.4783 10 76.5074 10C74.5752 10 73.5945 9.99024 73.5655 9.97072C73.5269 9.94143 73.5076 9.90239 73.5076 9.85359C73.5076 9.78526 73.5172 9.71694 73.5366 9.64861C73.5849 9.46315 73.6332 9.36066 73.6815 9.34114C73.7201 9.33138 73.7926 9.3265 73.8989 9.3265H73.9858C74.2467 9.3265 74.5365 9.31186 74.8553 9.28258C74.9906 9.25329 75.0824 9.19473 75.1307 9.10688C75.1597 9.06784 75.5075 7.71108 76.1741 5.0366C76.8407 2.36213 77.1741 0.951683 77.1741 0.80527C77.1741 0.736944 76.8987 0.69302 76.348 0.673498ZM82.4057 2.03514C82.4057 1.74231 82.3332 1.46901 82.1883 1.21523C82.0434 0.961444 81.8067 0.795509 81.4782 0.717422C81.4106 0.697901 80.9661 0.683259 80.1449 0.673498C79.9517 0.673498 79.7488 0.673498 79.5363 0.673498C79.3237 0.673498 79.1546 0.678379 79.029 0.68814H78.8406C78.6957 0.697901 78.6039 0.746705 78.5653 0.834553C78.546 0.873596 78.3914 1.45925 78.1016 2.59151C78.1016 2.62079 78.0967 2.65007 78.0871 2.67936L77.6378 4.52416H78.8117C79.5942 4.52416 80.0435 4.5144 80.1594 4.49487C80.7391 4.39727 81.256 4.1142 81.7101 3.64568C82.1642 3.17716 82.396 2.64031 82.4057 2.03514ZM81.6231 6.64714C81.6231 6.21767 81.512 5.8614 81.2898 5.57833C81.0676 5.29527 80.7778 5.12933 80.4203 5.08053C80.3623 5.07077 79.9614 5.06589 79.2174 5.06589C78.0774 5.06589 77.5025 5.07077 77.4929 5.08053C77.4929 5.10005 77.4108 5.45632 77.2465 6.14934C77.0823 6.84236 76.9132 7.5305 76.7393 8.21376L76.4784 9.23865C76.4784 9.2777 76.5364 9.29722 76.6523 9.29722C76.7683 9.29722 77.1596 9.30698 77.8262 9.3265C78.6861 9.3265 79.1498 9.32162 79.2174 9.31186C79.8164 9.24353 80.3671 8.96047 80.8695 8.46266C81.3719 7.96486 81.6231 7.35969 81.6231 6.64714Z" fill="black"></path></g><g clip-path="url(#clip2)"><path d="M147.7 158.231C147.7 157.177 148.012 156.163 148.637 155.191C149.261 154.219 150.049 153.449 151 152.88C151.951 152.312 152.902 152.023 153.853 152.014C154.692 152.014 155.359 152.248 155.853 152.715C155.937 152.807 156.007 152.885 156.063 152.949C156.119 153.013 156.156 153.059 156.174 153.087L156.188 153.128C156.216 153.128 156.342 153.009 156.566 152.77C156.631 152.715 156.701 152.651 156.776 152.578C156.85 152.504 156.925 152.431 157 152.358C157.074 152.284 157.121 152.234 157.139 152.206L157.349 152H157.433C157.564 152 157.629 152.032 157.629 152.096C157.629 152.133 157.48 152.761 157.181 153.981C156.846 155.255 156.678 155.897 156.678 155.906C156.659 155.952 156.636 155.98 156.608 155.989C156.58 155.998 156.496 156.007 156.356 156.017H156.133C156.077 155.961 156.049 155.92 156.049 155.893C156.049 155.884 156.053 155.851 156.063 155.796C156.072 155.741 156.081 155.65 156.091 155.521C156.1 155.393 156.105 155.246 156.105 155.081C156.105 154.43 155.955 153.862 155.657 153.376C155.359 152.889 154.851 152.642 154.133 152.633C153.89 152.633 153.629 152.665 153.35 152.729C153.07 152.793 152.734 152.903 152.343 153.059C151.951 153.215 151.564 153.472 151.182 153.829C150.8 154.187 150.459 154.613 150.161 155.109C149.863 155.631 149.625 156.241 149.448 156.938C149.271 157.635 149.182 158.204 149.182 158.644C149.182 159.689 149.536 160.441 150.245 160.9C150.692 161.211 151.243 161.367 151.895 161.367C152.744 161.367 153.499 161.055 154.161 160.432C154.823 159.808 155.261 159.13 155.475 158.396C155.513 158.277 155.541 158.208 155.559 158.19C155.578 158.171 155.652 158.162 155.783 158.162C155.969 158.162 156.063 158.204 156.063 158.286C156.063 158.332 156.058 158.373 156.049 158.41C155.778 159.391 155.2 160.235 154.315 160.941C153.429 161.647 152.478 162 151.462 162C150.408 162 149.518 161.656 148.791 160.968C148.063 160.281 147.7 159.368 147.7 158.231Z" fill="black"></path></g><path d="M71.4788 57.3015C71.4788 56.1025 71.7866 55.1535 72.4021 54.4547C73.0177 53.7558 73.7017 53.4064 74.454 53.4064C74.9784 53.4064 75.3545 53.5388 75.5825 53.8037C75.8105 54.0685 75.9245 54.3627 75.9245 54.6864C75.9245 54.8703 75.8713 55.0174 75.7649 55.1278C75.6585 55.2381 75.5103 55.2933 75.3204 55.2933C75.1456 55.2933 75.0012 55.2418 74.8872 55.1388C74.7732 55.0358 74.7162 54.8924 74.7162 54.7085C74.7162 54.3848 74.8948 54.1899 75.252 54.1237C75.0848 53.9618 74.8492 53.8699 74.5452 53.8478C74.0056 53.8478 73.5611 54.0685 73.2115 54.5099C72.8543 54.9954 72.6757 55.7383 72.6757 56.7388L72.6871 56.7829C72.7251 56.7388 72.7555 56.691 72.7783 56.6395C73.0899 56.1981 73.4965 55.9774 73.998 55.9774H74.0436C74.3932 55.9774 74.701 56.0473 74.967 56.1871C75.1494 56.2901 75.3318 56.4372 75.5141 56.6284C75.6965 56.8197 75.8447 57.0294 75.9587 57.2574C76.1183 57.6179 76.1981 58.0114 76.1981 58.4381V58.6367C76.1981 58.8059 76.1791 58.964 76.1411 59.1112C76.0575 59.5452 75.8143 59.9682 75.4115 60.3801C75.0088 60.7921 74.4996 60.998 73.884 60.998C73.6713 60.998 73.4661 60.9686 73.2685 60.9098C73.0709 60.8509 72.8581 60.7406 72.6301 60.5787C72.4021 60.4169 72.2084 60.1999 72.0488 59.9277C71.8892 59.6555 71.7524 59.2988 71.6384 58.8574C71.5244 58.416 71.4712 57.8974 71.4788 57.3015ZM73.9296 56.3747C73.7017 56.3747 73.5041 56.4372 73.3369 56.5622C73.1697 56.6873 73.0405 56.8528 72.9493 57.0588C72.8581 57.2648 72.7935 57.4744 72.7555 57.6877C72.7175 57.9011 72.6947 58.1291 72.6871 58.3719C72.6871 58.9824 72.7327 59.4201 72.8239 59.685C72.9151 59.9498 73.0595 60.1631 73.2571 60.325C73.4395 60.4574 73.6409 60.5236 73.8612 60.5236C74.2488 60.5236 74.5452 60.3838 74.7504 60.1043C74.8492 59.9719 74.9176 59.8063 74.9556 59.6077C74.9936 59.4091 75.0126 59.0229 75.0126 58.4491C75.0126 57.8606 74.9936 57.4671 74.9556 57.2684C74.9176 57.0698 74.8492 56.9043 74.7504 56.7719C74.5452 56.5071 74.2716 56.3747 73.9296 56.3747Z" fill="black"></path><path d="M77.7941 54.3002C78.2197 53.7043 78.801 53.4064 79.5382 53.4064C79.903 53.4064 80.2677 53.502 80.6325 53.6933C80.9973 53.8846 81.2937 54.223 81.5217 54.7085C81.8028 55.319 81.9434 56.1576 81.9434 57.2243C81.9434 58.3645 81.78 59.2362 81.4533 59.8394C81.3013 60.1484 81.0923 60.3948 80.8263 60.5787C80.5603 60.7626 80.3285 60.8767 80.131 60.9208C79.9334 60.9649 79.7396 60.9907 79.5496 60.998C79.352 60.998 79.1544 60.976 78.9568 60.9318C78.7592 60.8877 78.5275 60.77 78.2615 60.5787C77.9955 60.3875 77.7865 60.141 77.6345 59.8394C77.3077 59.2362 77.1443 58.3645 77.1443 57.2243C77.1443 55.9443 77.3609 54.9696 77.7941 54.3002ZM80.3589 54.1678C80.131 53.9324 79.8612 53.8147 79.5496 53.8147C79.2304 53.8147 78.9568 53.9324 78.7288 54.1678C78.5389 54.359 78.4135 54.6239 78.3527 54.9623C78.2919 55.3006 78.2615 56.0068 78.2615 57.0809C78.2615 58.2431 78.2919 59.0082 78.3527 59.376C78.4135 59.7438 78.5503 60.0344 78.763 60.2477C78.9758 60.4684 79.238 60.5787 79.5496 60.5787C79.8536 60.5787 80.112 60.4684 80.3247 60.2477C80.5451 60.027 80.6819 59.7181 80.7351 59.3208C80.7883 58.9236 80.8187 58.1769 80.8263 57.0809C80.8263 56.0142 80.7959 55.3117 80.7351 54.9733C80.6743 54.6349 80.5489 54.3664 80.3589 54.1678Z" fill="black"></path><path d="M83.1729 51.6357C83.4738 51.2144 83.8848 51.0038 84.4059 51.0038C84.6638 51.0038 84.9217 51.0714 85.1796 51.2066C85.4375 51.3419 85.6471 51.5811 85.8083 51.9244C86.0071 52.356 86.1065 52.9489 86.1065 53.7031C86.1065 54.5092 85.9909 55.1255 85.7599 55.552C85.6524 55.7704 85.5047 55.9446 85.3166 56.0746C85.1286 56.2047 84.9647 56.2853 84.825 56.3165C84.6853 56.3477 84.5483 56.3659 84.414 56.3711C84.2743 56.3711 84.1346 56.3555 83.9949 56.3243C83.8552 56.2931 83.6914 56.2099 83.5033 56.0746C83.3153 55.9394 83.1675 55.7652 83.06 55.552C82.829 55.1255 82.7135 54.5092 82.7135 53.7031C82.7135 52.7981 82.8666 52.109 83.1729 51.6357ZM84.9862 51.5421C84.825 51.3757 84.6343 51.2925 84.414 51.2925C84.1883 51.2925 83.9949 51.3757 83.8337 51.5421C83.6994 51.6773 83.6108 51.8646 83.5678 52.1038C83.5248 52.343 83.5033 52.8423 83.5033 53.6016C83.5033 54.4234 83.5248 54.9643 83.5678 55.2243C83.6108 55.4843 83.7075 55.6898 83.8579 55.8406C84.0084 55.9966 84.1937 56.0746 84.414 56.0746C84.6289 56.0746 84.8116 55.9966 84.962 55.8406C85.1179 55.6846 85.2146 55.4661 85.2522 55.1853C85.2898 54.9045 85.3113 54.3766 85.3166 53.6016C85.3166 52.8475 85.2952 52.3508 85.2522 52.1116C85.2092 51.8724 85.1205 51.6825 84.9862 51.5421Z" fill="black"></path><path d="M45.5225 140.062C45.5225 139.111 45.7165 138.109 46.1046 137.056C46.4926 136.002 47.02 135.094 47.6866 134.329C48.3533 133.565 49.0448 133.127 49.7613 133.015C49.7712 133.015 49.811 133.015 49.8807 133.015C49.9503 133.015 50.01 133.01 50.0598 133.001C50.5971 133.038 51.015 133.267 51.3135 133.686C51.7016 134.245 51.8956 134.996 51.8956 135.937C51.8956 137.009 51.6717 138.1 51.224 139.209C50.7762 140.318 50.2041 141.227 49.5075 141.935C48.811 142.644 48.1444 142.998 47.5075 142.998H47.4031C47.0448 142.998 46.7364 142.905 46.4777 142.718C46.219 142.532 46.0249 142.285 45.8956 141.977C45.7662 141.67 45.6717 141.358 45.612 141.041C45.5523 140.724 45.5225 140.397 45.5225 140.062ZM50.7165 134.945C50.7165 133.994 50.4528 133.518 49.9254 133.518C49.5672 133.518 49.219 133.728 48.8807 134.148C48.5424 134.567 48.2638 135.042 48.0448 135.574C47.8259 136.105 47.6568 136.571 47.5374 136.972C47.418 137.373 47.3533 137.606 47.3434 137.671C47.8309 137.68 48.3135 137.685 48.7911 137.685L50.2389 137.671C50.2488 137.662 50.2886 137.508 50.3583 137.21C50.4279 136.911 50.5075 136.538 50.5971 136.091C50.6866 135.644 50.7264 135.261 50.7165 134.945ZM46.6866 141.013C46.6866 142.001 46.9503 142.495 47.4777 142.495C47.6269 142.495 47.7861 142.448 47.9553 142.355C48.1245 142.262 48.3284 142.085 48.5672 141.824C48.806 141.563 49.0448 141.157 49.2837 140.607C49.5225 140.057 49.7613 139.377 50.0001 138.566L50.0747 138.328H47.1643C47.1643 138.356 47.1195 138.533 47.0299 138.859C46.9404 139.186 46.8608 139.549 46.7911 139.95C46.7215 140.351 46.6866 140.705 46.6866 141.013Z" fill="black"></path><path d="M123.351 83.3549C123.351 83.6804 123.242 83.9516 123.024 84.1686C122.806 84.3856 122.54 84.4941 122.227 84.4941H122.084C122.711 85.5654 123.541 86.1011 124.577 86.1011C125.53 86.1011 126.225 85.6942 126.661 84.8806C126.919 84.433 127.049 83.5651 127.049 82.2768C127.049 80.88 126.865 79.9375 126.497 79.4493C126.143 79.0018 125.748 78.7781 125.312 78.7781H125.19C124.127 78.7781 123.324 79.2391 122.779 80.1613C122.724 80.2562 122.677 80.3105 122.636 80.324C122.595 80.3376 122.493 80.3511 122.329 80.3647C122.098 80.3647 121.968 80.324 121.941 80.2427C121.914 80.1884 121.9 79.0018 121.9 76.6829V74.0588C121.9 73.3807 121.934 73.0417 122.002 73.0417C122.03 73.0146 122.057 73.001 122.084 73.001C122.098 73.001 122.241 73.0553 122.513 73.1637C122.786 73.2722 123.16 73.3807 123.637 73.4892C124.114 73.5977 124.624 73.6519 125.169 73.6519C126.136 73.6519 127.062 73.4621 127.948 73.0824C128.057 73.0281 128.145 73.001 128.213 73.001C128.322 73.001 128.377 73.1231 128.377 73.3672V73.6316C127.26 74.947 125.864 75.6047 124.188 75.6047C123.766 75.6047 123.385 75.5641 123.044 75.4827L122.84 75.442V78.9408C123.099 78.7509 123.303 78.6018 123.453 78.4933C123.603 78.3848 123.848 78.2763 124.188 78.1678C124.529 78.0593 124.876 78.0051 125.23 78.0051C126.334 78.0051 127.267 78.4458 128.029 79.3273C128.792 80.2088 129.174 81.253 129.174 82.4599C129.174 83.7075 128.738 84.7721 127.866 85.6535C126.994 86.535 125.932 86.9825 124.679 86.9961C123.576 86.9961 122.69 86.6299 122.023 85.8976C121.355 85.1653 121.022 84.3381 121.022 83.416C121.022 83.0905 121.097 82.8328 121.246 82.643C121.396 82.4531 121.553 82.3311 121.716 82.2768C121.88 82.2226 122.036 82.1955 122.186 82.1955C122.527 82.1955 122.806 82.3107 123.024 82.5413C123.242 82.7718 123.351 83.043 123.351 83.3549Z" fill="black"></path><path d="M130.91 83.3158C130.91 81.8376 131.496 80.5086 132.667 79.3288C133.838 78.149 135.105 77.5591 136.467 77.5591C137.23 77.5591 137.829 77.7218 138.265 78.0473C138.701 78.3728 138.926 78.7999 138.939 79.3288C138.939 79.7221 138.81 80.0543 138.551 80.3256C138.292 80.5968 137.965 80.7392 137.571 80.7527C137.312 80.7527 137.107 80.6849 136.958 80.5493C136.808 80.4137 136.733 80.2103 136.733 79.9391C136.733 79.6678 136.808 79.4373 136.958 79.2474C137.107 79.0576 137.257 78.9152 137.407 78.8203C137.557 78.7253 137.652 78.6847 137.693 78.6982H137.714C137.714 78.6711 137.673 78.6304 137.591 78.5762C137.509 78.5219 137.366 78.4677 137.162 78.4134C136.958 78.3592 136.726 78.3321 136.467 78.3321C136.059 78.3321 135.67 78.427 135.303 78.6169C135.017 78.7389 134.724 78.9491 134.424 79.2474C133.825 79.8441 133.389 80.6849 133.117 81.7698C132.844 82.8547 132.701 83.6413 132.688 84.1295C132.688 84.7533 132.865 85.2211 133.219 85.533C133.518 85.8585 133.913 86.0212 134.404 86.0212H134.485C136.011 86.0212 137.271 85.4449 138.265 84.2922C138.388 84.1566 138.469 84.0888 138.51 84.0888C138.565 84.0888 138.653 84.1498 138.776 84.2718C138.899 84.3939 138.967 84.4888 138.98 84.5566C138.994 84.6244 138.933 84.7261 138.796 84.8618C138.66 84.9974 138.463 85.1872 138.204 85.4313C137.945 85.6754 137.639 85.8788 137.284 86.0416C136.93 86.2043 136.494 86.3738 135.977 86.5501C135.459 86.7264 134.915 86.801 134.342 86.7739C133.321 86.7739 132.497 86.4484 131.87 85.7975C131.244 85.1465 130.924 84.3193 130.91 83.3158Z" fill="black"></path><path d="M139.491 80.7097C139.505 80.6283 139.525 80.5198 139.552 80.3842C139.58 80.2486 139.661 79.9909 139.797 79.6112C139.934 79.2315 140.07 78.9128 140.206 78.6551C140.342 78.3975 140.56 78.1466 140.86 77.9025C141.16 77.6584 141.459 77.5431 141.759 77.5567C142.058 77.5703 142.351 77.6177 142.637 77.6991C142.923 77.7805 143.128 77.9025 143.25 78.0652C143.373 78.228 143.482 78.3771 143.577 78.5128C143.673 78.6484 143.727 78.7772 143.741 78.8993L143.781 79.0416C143.781 79.0688 143.788 79.0823 143.802 79.0823L144.027 78.8586C144.844 77.9907 145.804 77.5567 146.907 77.5567C147.139 77.5567 147.35 77.5703 147.541 77.5974C147.731 77.6245 147.908 77.672 148.072 77.7398C148.235 77.8076 148.365 77.8754 148.46 77.9432C148.555 78.011 148.658 78.0924 148.767 78.1873C148.876 78.2822 148.944 78.3704 148.971 78.4517C148.998 78.5331 149.053 78.6212 149.134 78.7162C149.216 78.8111 149.243 78.8925 149.216 78.9603C149.189 79.0281 149.209 79.0891 149.277 79.1434C149.345 79.1976 149.359 79.2451 149.318 79.2857L149.482 79.0823C150.34 78.0652 151.354 77.5567 152.526 77.5567C153.261 77.5567 153.854 77.7398 154.303 78.1059C154.753 78.4721 154.984 79.0077 154.998 79.7129C154.998 80.4045 154.739 81.4759 154.222 82.9269C153.704 84.3779 153.445 85.2459 153.445 85.5306C153.459 85.7205 153.493 85.8493 153.547 85.9171C153.602 85.9849 153.704 86.0188 153.854 86.0188C154.235 86.0188 154.589 85.8154 154.916 85.4086C155.243 85.0018 155.509 84.4458 155.713 83.7406C155.754 83.5914 155.795 83.5033 155.836 83.4761C155.876 83.449 155.985 83.4354 156.162 83.4354C156.435 83.4354 156.571 83.4897 156.571 83.5982C156.571 83.6117 156.544 83.7135 156.489 83.9033C156.38 84.2966 156.231 84.6831 156.04 85.0628C155.849 85.4425 155.536 85.8222 155.1 86.2019C154.664 86.5816 154.194 86.7647 153.69 86.7511C153.05 86.7511 152.587 86.5681 152.301 86.2019C152.015 85.8358 151.872 85.4561 151.872 85.0628C151.872 84.8051 152.117 83.9915 152.608 82.6218C153.098 81.2521 153.35 80.2215 153.363 79.5298C153.363 78.7297 153.064 78.3297 152.465 78.3297H152.362C151.191 78.3297 150.204 79.0145 149.4 80.3842L149.257 80.6283L148.583 83.3541C148.133 85.1306 147.874 86.0866 147.806 86.2223C147.629 86.5884 147.336 86.7715 146.928 86.7715C146.751 86.7715 146.608 86.724 146.499 86.6291C146.39 86.5342 146.315 86.4528 146.274 86.385C146.233 86.3172 146.213 86.2494 146.213 86.1816C146.213 86.0324 146.444 85.0628 146.907 83.2727L147.643 80.3028C147.684 80.0994 147.704 79.8417 147.704 79.5298C147.704 78.7297 147.405 78.3297 146.805 78.3297H146.703C145.532 78.3297 144.544 79.0145 143.741 80.3842L143.598 80.6283L142.923 83.3541C142.474 85.1306 142.215 86.0866 142.147 86.2223C141.97 86.5884 141.677 86.7715 141.268 86.7715C141.091 86.7715 140.948 86.7308 140.839 86.6494C140.73 86.5681 140.656 86.4867 140.615 86.4053C140.574 86.324 140.56 86.2562 140.574 86.2019C140.574 86.0256 140.833 84.9136 141.35 82.8659C141.881 80.7775 142.147 79.6858 142.147 79.5909C142.188 79.3875 142.208 79.2044 142.208 79.0416C142.208 78.5534 142.038 78.3093 141.698 78.3093C141.398 78.3093 141.146 78.4992 140.942 78.8789C140.737 79.2586 140.581 79.6722 140.472 80.1198C140.363 80.5673 140.281 80.8114 140.227 80.8521C140.199 80.8792 140.09 80.8927 139.9 80.8927H139.614C139.532 80.8114 139.491 80.7503 139.491 80.7097Z" fill="black"></path><path d="M64.3508 172.355C64.3508 172.68 64.2418 172.952 64.0239 173.169C63.8059 173.386 63.5403 173.494 63.2271 173.494H63.0841C63.7106 174.565 64.5415 175.101 65.5766 175.101C66.53 175.101 67.2247 174.694 67.6605 173.881C67.9193 173.433 68.0487 172.565 68.0487 171.277C68.0487 169.88 67.8648 168.938 67.4971 168.449C67.143 168.002 66.748 167.778 66.3121 167.778H66.1895C65.1271 167.778 64.3235 168.239 63.7787 169.161C63.7242 169.256 63.6766 169.31 63.6357 169.324C63.5948 169.338 63.4927 169.351 63.3292 169.365C63.0977 169.365 62.9683 169.324 62.941 169.243C62.9138 169.188 62.9002 168.002 62.9002 165.683V163.059C62.9002 162.381 62.9342 162.042 63.0023 162.042C63.0296 162.015 63.0568 162.001 63.0841 162.001C63.0977 162.001 63.2407 162.055 63.5131 162.164C63.7855 162.272 64.1601 162.381 64.6368 162.489C65.1135 162.598 65.6243 162.652 66.1691 162.652C67.1362 162.652 68.0623 162.462 68.9477 162.082C69.0566 162.028 69.1452 162.001 69.2133 162.001C69.3222 162.001 69.3767 162.123 69.3767 162.367V162.632C68.2598 163.947 66.8637 164.605 65.1884 164.605C64.7662 164.605 64.3848 164.564 64.0443 164.483L63.84 164.442V167.941C64.0988 167.751 64.3031 167.602 64.4529 167.493C64.6027 167.385 64.8479 167.276 65.1884 167.168C65.5289 167.059 65.8763 167.005 66.2304 167.005C67.3336 167.005 68.2667 167.446 69.0294 168.327C69.7921 169.209 70.1735 170.253 70.1735 171.46C70.1735 172.708 69.7377 173.772 68.866 174.654C67.9942 175.535 66.9318 175.983 65.6788 175.996C64.5755 175.996 63.6902 175.63 63.0228 174.898C62.3554 174.165 62.0217 173.338 62.0217 172.416C62.0217 172.09 62.0966 171.833 62.2464 171.643C62.3962 171.453 62.5529 171.331 62.7163 171.277C62.8798 171.223 63.0364 171.195 63.1862 171.195C63.5267 171.195 63.8059 171.311 64.0239 171.541C64.2418 171.772 64.3508 172.043 64.3508 172.355Z" fill="black"></path><path d="M71.9101 172.316C71.9101 170.838 72.4958 169.509 73.6671 168.329C74.8385 167.149 76.1052 166.559 77.4672 166.559C78.23 166.559 78.8293 166.722 79.2651 167.047C79.701 167.373 79.9257 167.8 79.9394 168.329C79.9394 168.722 79.81 169.054 79.5512 169.326C79.2924 169.597 78.9655 169.739 78.5705 169.753C78.3117 169.753 78.1074 169.685 77.9576 169.549C77.8078 169.414 77.7328 169.21 77.7328 168.939C77.7328 168.668 77.8078 168.437 77.9576 168.247C78.1074 168.058 78.2572 167.915 78.4071 167.82C78.5569 167.725 78.6522 167.685 78.6931 167.698H78.7135C78.7135 167.671 78.6727 167.63 78.5909 167.576C78.5092 167.522 78.3662 167.468 78.1619 167.413C77.9576 167.359 77.726 167.332 77.4672 167.332C77.0586 167.332 76.6704 167.427 76.3027 167.617C76.0167 167.739 75.7238 167.949 75.4242 168.247C74.8249 168.844 74.389 169.685 74.1166 170.77C73.8442 171.855 73.7012 172.641 73.6876 173.129C73.6876 173.753 73.8646 174.221 74.2188 174.533C74.5184 174.858 74.9134 175.021 75.4037 175.021H75.4855C77.011 175.021 78.2709 174.445 79.2651 173.292C79.3877 173.157 79.4695 173.089 79.5103 173.089C79.5648 173.089 79.6533 173.15 79.7759 173.272C79.8985 173.394 79.9666 173.489 79.9802 173.557C79.9938 173.624 79.9326 173.726 79.7963 173.862C79.6601 173.997 79.4626 174.187 79.2039 174.431C78.9451 174.675 78.6386 174.879 78.2845 175.042C77.9303 175.204 77.4945 175.374 76.9769 175.55C76.4593 175.726 75.9145 175.801 75.3425 175.774C74.3209 175.774 73.4969 175.448 72.8703 174.797C72.2438 174.147 71.9237 173.319 71.9101 172.316Z" fill="black"></path><path d="M80.491 169.71C80.5046 169.628 80.5251 169.52 80.5523 169.384C80.5796 169.249 80.6613 168.991 80.7975 168.611C80.9337 168.231 81.0699 167.913 81.2061 167.655C81.3423 167.397 81.5602 167.147 81.8599 166.903C82.1595 166.658 82.4592 166.543 82.7588 166.557C83.0585 166.57 83.3513 166.618 83.6374 166.699C83.9234 166.78 84.1277 166.903 84.2503 167.065C84.3729 167.228 84.4818 167.377 84.5772 167.513C84.6725 167.648 84.727 167.777 84.7406 167.899L84.7815 168.042C84.7815 168.069 84.7883 168.082 84.8019 168.082L85.0266 167.859C85.8439 166.991 86.8041 166.557 87.9074 166.557C88.1389 166.557 88.35 166.57 88.5407 166.597C88.7314 166.625 88.9085 166.672 89.0719 166.74C89.2354 166.808 89.3648 166.875 89.4601 166.943C89.5555 167.011 89.6576 167.092 89.7666 167.187C89.8755 167.282 89.9436 167.37 89.9709 167.452C89.9981 167.533 90.0526 167.621 90.1343 167.716C90.216 167.811 90.2433 167.892 90.216 167.96C90.1888 168.028 90.2092 168.089 90.2773 168.143C90.3454 168.198 90.3591 168.245 90.3182 168.286L90.4816 168.082C91.3397 167.065 92.3545 166.557 93.5258 166.557C94.2613 166.557 94.8538 166.74 95.3033 167.106C95.7528 167.472 95.9843 168.008 95.9979 168.713C95.9979 169.405 95.7391 170.476 95.2216 171.927C94.704 173.378 94.4452 174.246 94.4452 174.531C94.4588 174.72 94.4929 174.849 94.5474 174.917C94.6018 174.985 94.704 175.019 94.8538 175.019C95.2352 175.019 95.5893 174.815 95.9162 174.409C96.2431 174.002 96.5087 173.446 96.713 172.741C96.7539 172.591 96.7947 172.503 96.8356 172.476C96.8765 172.449 96.9854 172.435 97.1625 172.435C97.4349 172.435 97.5711 172.49 97.5711 172.598C97.5711 172.612 97.5439 172.713 97.4894 172.903C97.3804 173.297 97.2306 173.683 97.0399 174.063C96.8492 174.442 96.5359 174.822 96.1001 175.202C95.6642 175.582 95.1943 175.765 94.6904 175.751C94.0502 175.751 93.5871 175.568 93.3011 175.202C93.0151 174.836 92.872 174.456 92.872 174.063C92.872 173.805 93.1172 172.991 93.6075 171.622C94.0979 170.252 94.3499 169.221 94.3635 168.53C94.3635 167.73 94.0638 167.33 93.4645 167.33H93.3624C92.191 167.33 91.2035 168.015 90.3999 169.384L90.2569 169.628L89.5827 172.354C89.1332 174.131 88.8744 175.087 88.8063 175.222C88.6293 175.588 88.3364 175.771 87.9278 175.771C87.7507 175.771 87.6077 175.724 87.4988 175.629C87.3898 175.534 87.3149 175.453 87.274 175.385C87.2332 175.317 87.2127 175.249 87.2127 175.182C87.2127 175.032 87.4443 174.063 87.9074 172.273L88.6429 169.303C88.6837 169.099 88.7042 168.842 88.7042 168.53C88.7042 167.73 88.4045 167.33 87.8052 167.33H87.7031C86.5317 167.33 85.5442 168.015 84.7406 169.384L84.5976 169.628L83.9234 172.354C83.4739 174.131 83.2151 175.087 83.147 175.222C82.97 175.588 82.6771 175.771 82.2685 175.771C82.0914 175.771 81.9484 175.731 81.8395 175.649C81.7305 175.568 81.6556 175.487 81.6147 175.405C81.5739 175.324 81.5602 175.256 81.5739 175.202C81.5739 175.026 81.8326 173.914 82.3502 171.866C82.8814 169.777 83.147 168.686 83.147 168.591C83.1879 168.387 83.2083 168.204 83.2083 168.042C83.2083 167.553 83.0381 167.309 82.6975 167.309C82.3979 167.309 82.1459 167.499 81.9416 167.879C81.7373 168.259 81.5807 168.672 81.4717 169.12C81.3627 169.567 81.281 169.811 81.2265 169.852C81.1993 169.879 81.0903 169.893 80.8996 169.893H80.6136C80.5319 169.811 80.491 169.75 80.491 169.71Z" fill="black"></path><g clip-path="url(#clip3)"><path d="M134.563 66.0377C134.563 64.8433 134.994 63.7081 135.856 62.6319C136.717 61.5558 137.687 61.0118 138.763 61C139.342 61 139.852 61.2897 140.294 61.8692C140.475 61.5144 140.736 61.337 141.076 61.337C141.224 61.337 141.354 61.3843 141.467 61.4789C141.581 61.5735 141.637 61.6918 141.637 61.8337C141.637 61.9874 141.428 62.9335 141.008 64.6718C140.589 66.4102 140.373 67.3917 140.362 67.6164C140.362 67.912 140.402 68.1072 140.481 68.2018C140.56 68.2964 140.679 68.3496 140.838 68.3614C140.94 68.3496 141.053 68.2964 141.178 68.2018C141.416 67.9653 141.649 67.3976 141.875 66.4989C141.943 66.2624 142 66.1382 142.045 66.1264C142.068 66.1146 142.125 66.1086 142.215 66.1086H142.283C142.499 66.1086 142.607 66.1619 142.607 66.2683C142.607 66.3392 142.578 66.4989 142.522 66.7472C142.465 66.9956 142.352 67.3149 142.181 67.7051C142.011 68.0953 141.83 68.391 141.637 68.592C141.49 68.7458 141.309 68.8699 141.093 68.9645C141.002 68.9882 140.866 69 140.685 69C140.3 69 139.976 68.9113 139.716 68.7339C139.455 68.5565 139.285 68.3732 139.206 68.184L139.104 67.918C139.092 67.9061 139.07 67.912 139.036 67.9357C139.013 67.9593 138.99 67.983 138.968 68.0067C138.299 68.6689 137.618 69 136.927 69C136.303 69 135.754 68.7635 135.277 68.2905C134.801 67.8174 134.563 67.0665 134.563 66.0377ZM139.971 63.0044C139.971 62.9335 139.942 62.8034 139.886 62.6142C139.829 62.425 139.699 62.218 139.495 61.9933C139.291 61.7687 139.03 61.6504 138.712 61.6386C138.316 61.6386 137.936 61.8219 137.573 62.1885C137.21 62.5551 136.927 63.034 136.723 63.6253C136.394 64.5595 136.162 65.5292 136.026 66.5344C136.026 66.5698 136.026 66.6349 136.026 66.7295C136.026 66.8241 136.02 66.895 136.009 66.9424C136.009 67.4745 136.111 67.8411 136.315 68.0421C136.519 68.2432 136.763 68.3496 137.046 68.3614C137.477 68.3614 137.902 68.1663 138.321 67.7761C138.741 67.3858 138.99 67.0843 139.07 66.8714C139.092 66.8241 139.245 66.1914 139.529 64.9734C139.812 63.7554 139.959 63.099 139.971 63.0044Z" fill="black"></path></g><g clip-path="url(#clip4)"><path d="M78.1922 182.8C78.1922 182.687 78.2139 182.556 78.2574 182.409C78.3009 182.261 78.3661 182.187 78.4531 182.187C78.464 182.187 78.8554 182.159 79.6274 182.102C80.3994 182.045 80.7963 182.011 80.818 182C80.9485 182 81.0138 182.051 81.0138 182.153C81.0138 182.255 80.8289 183.067 80.4592 184.587C80.3722 184.973 80.2798 185.37 80.182 185.779C80.0841 186.187 80.0026 186.494 79.9373 186.698L79.8721 187.021C79.8721 187.055 79.9047 187.038 79.9699 186.97C80.5027 186.516 81.0518 186.289 81.6172 186.289C82.2914 186.289 82.835 186.55 83.2482 187.072C83.6614 187.594 83.8734 188.252 83.8843 189.047C83.8843 190.306 83.4548 191.447 82.5958 192.468C81.7368 193.489 80.8126 194 79.8231 194C79.2795 194 78.7847 193.784 78.3389 193.353C77.8931 192.922 77.6648 192.224 77.6539 191.26V191.106C77.6539 190.868 77.6974 190.539 77.7844 190.119C77.8714 189.699 78.1378 188.582 78.5836 186.766C79.1273 184.53 79.3991 183.345 79.3991 183.209C79.3991 183.072 79.1925 182.993 78.7793 182.97C78.7249 182.97 78.6815 182.97 78.6488 182.97H78.5673C78.4586 182.97 78.3879 182.97 78.3553 182.97C78.3226 182.97 78.2846 182.953 78.2411 182.919C78.1976 182.885 78.1813 182.845 78.1922 182.8ZM82.4817 188.281V188.179C82.4817 187.339 82.15 186.919 81.4867 186.919C81.3019 186.919 81.1116 186.965 80.9159 187.055C80.7202 187.146 80.5408 187.265 80.3777 187.413C80.2146 187.56 80.0732 187.696 79.9536 187.821C79.834 187.946 79.7362 188.071 79.66 188.196L79.5622 188.332L79.2197 189.796C78.9805 190.772 78.8609 191.464 78.8609 191.872C78.8609 192.417 78.9913 192.826 79.2523 193.098C79.4263 193.279 79.6437 193.37 79.9047 193.37C80.2635 193.37 80.6278 193.189 80.9975 192.826C81.2693 192.565 81.4867 192.247 81.6498 191.872C81.8129 191.498 81.9924 190.902 82.1881 190.085C82.3838 189.268 82.4817 188.667 82.4817 188.281Z" fill="black"></path></g><g clip-path="url(#clip5)"><path d="M29.629 83.997C29.629 82.7137 30.1585 81.5599 31.2175 80.5356C32.2765 79.5113 33.4217 78.9992 34.6531 78.9992C35.3427 78.9992 35.8845 79.1405 36.2786 79.423C36.6726 79.7056 36.8758 80.0765 36.8881 80.5356C36.8881 80.877 36.7711 81.1655 36.5372 81.401C36.3032 81.6364 36.0077 81.76 35.6506 81.7718C35.4166 81.7718 35.2319 81.713 35.0964 81.5952C34.961 81.4775 34.8933 81.3009 34.8933 81.0654C34.8933 80.83 34.961 80.6298 35.0964 80.465C35.2319 80.3002 35.3673 80.1765 35.5028 80.0941C35.6382 80.0117 35.7244 79.9764 35.7614 79.9882H35.7799C35.7799 79.9646 35.7429 79.9293 35.669 79.8822C35.5951 79.8351 35.4659 79.788 35.2811 79.7409C35.0964 79.6938 34.8871 79.6703 34.6531 79.6703C34.2837 79.6703 33.9328 79.7527 33.6003 79.9175C33.3417 80.0235 33.0769 80.206 32.806 80.465C32.2642 80.983 31.8702 81.713 31.6239 82.6548C31.3776 83.5967 31.2483 84.2795 31.236 84.7034C31.236 85.245 31.3961 85.6511 31.7162 85.9219C31.9872 86.2045 32.3443 86.3458 32.7876 86.3458H32.8614C34.2406 86.3458 35.3797 85.8454 36.2786 84.8447C36.3894 84.7269 36.4633 84.6681 36.5002 84.6681C36.5495 84.6681 36.6295 84.7211 36.7403 84.827C36.8512 84.933 36.9127 85.0154 36.9251 85.0743C36.9374 85.1331 36.882 85.2214 36.7588 85.3392C36.6357 85.4569 36.4571 85.6217 36.2232 85.8336C35.9892 86.0456 35.7121 86.2222 35.392 86.3634C35.0718 86.5047 34.6778 86.6519 34.2098 86.8049C33.7419 86.958 33.2493 87.0227 32.7321 86.9992C31.8086 86.9992 31.0636 86.7166 30.4972 86.1515C29.9307 85.5864 29.6413 84.8682 29.629 83.997Z" fill="black"></path></g><defs><clipPath id="clip0"><rect width="11" height="11" fill="white" transform="translate(0 151)"></rect></clipPath><clipPath id="clip1"><rect width="11" height="10" fill="white" transform="translate(73)"></rect></clipPath><clipPath id="clip2"><rect width="10" height="10" fill="white" transform="translate(147 152)"></rect></clipPath><clipPath id="clip3"><rect width="9" height="8" fill="white" transform="translate(134 61)"></rect></clipPath><clipPath id="clip4"><rect width="7" height="12" fill="white" transform="translate(77 182)"></rect></clipPath><clipPath id="clip5"><rect width="8" height="8" fill="white" transform="translate(29 79)"></rect></clipPath></defs></svg> 