<?xml version="1.0" encoding="UTF-8"?> <svg xmlns="http://www.w3.org/2000/svg" width="282" height="153" viewBox="0 0 282 153" fill="none"><path d="M233.5 2.95H234.71V10H233.74L229.96 5.08V10H228.76V2.95H229.72L233.5 7.86V2.95ZM238.501 10.08C238.001 10.08 237.561 9.97667 237.181 9.77C236.807 9.56333 236.517 9.26667 236.311 8.88C236.104 8.49333 236.001 8.04333 236.001 7.53C236.001 7.01667 236.104 6.57 236.311 6.19C236.517 5.80333 236.807 5.50667 237.181 5.3C237.561 5.09333 238.001 4.99 238.501 4.99C239.001 4.99 239.437 5.09333 239.811 5.3C240.191 5.50667 240.481 5.80333 240.681 6.19C240.887 6.57 240.991 7.01667 240.991 7.53C240.991 8.04333 240.887 8.49333 240.681 8.88C240.481 9.26667 240.191 9.56333 239.811 9.77C239.437 9.97667 239.001 10.08 238.501 10.08ZM238.491 9.11C238.897 9.11 239.207 8.97667 239.421 8.71C239.634 8.44333 239.741 8.05 239.741 7.53C239.741 7.01667 239.634 6.62667 239.421 6.36C239.207 6.08667 238.901 5.95 238.501 5.95C238.101 5.95 237.791 6.08667 237.571 6.36C237.357 6.62667 237.251 7.01667 237.251 7.53C237.251 8.05 237.357 8.44333 237.571 8.71C237.784 8.97667 238.091 9.11 238.491 9.11ZM244.643 9.14C244.79 9.14 244.943 9.13 245.103 9.11L245.043 10.04C244.843 10.06 244.66 10.07 244.493 10.07C243.807 10.07 243.3 9.91333 242.973 9.6C242.647 9.28 242.483 8.80667 242.483 8.18V6.05H241.543V5.11H242.483V3.65H243.733V5.11H245.023V6.05H243.733V8.16C243.733 8.81333 244.037 9.14 244.643 9.14ZM253.57 2.95V10H252.33V9.21C252.183 9.48333 251.97 9.69667 251.69 9.85C251.416 10.0033 251.103 10.08 250.75 10.08C250.33 10.08 249.953 9.97333 249.62 9.76C249.293 9.54667 249.036 9.24667 248.85 8.86C248.67 8.46667 248.58 8.01667 248.58 7.51C248.58 7.00333 248.67 6.56 248.85 6.18C249.036 5.8 249.293 5.50667 249.62 5.3C249.946 5.09333 250.323 4.99 250.75 4.99C251.103 4.99 251.416 5.06333 251.69 5.21C251.963 5.35667 252.173 5.56333 252.32 5.83V2.95H253.57ZM251.08 9.11C251.48 9.11 251.786 8.97333 252 8.7C252.22 8.42667 252.33 8.03667 252.33 7.53C252.33 7.02333 252.22 6.63667 252 6.37C251.786 6.09667 251.483 5.96 251.09 5.96C250.69 5.96 250.38 6.09333 250.16 6.36C249.94 6.62667 249.83 7.01 249.83 7.51C249.83 8.01667 249.94 8.41 250.16 8.69C250.38 8.97 250.686 9.11 251.08 9.11ZM258.225 6.03L257.495 6.1C256.669 6.18667 256.255 6.60667 256.255 7.36V10H255.005V5.11H256.195V5.97C256.449 5.38333 256.972 5.06333 257.765 5.01L258.145 4.98L258.225 6.03ZM261.064 4.99C261.751 4.99 262.261 5.15667 262.594 5.49C262.927 5.82333 263.094 6.33667 263.094 7.03V10H261.904V9.25C261.791 9.51 261.611 9.71333 261.364 9.86C261.124 10.0067 260.844 10.08 260.524 10.08C260.197 10.08 259.901 10.0133 259.634 9.88C259.367 9.74667 259.157 9.56333 259.004 9.33C258.851 9.09667 258.774 8.83667 258.774 8.55C258.774 8.19 258.864 7.90667 259.044 7.7C259.231 7.49333 259.531 7.34333 259.944 7.25C260.357 7.15667 260.927 7.11 261.654 7.11H261.904V6.88C261.904 6.54667 261.831 6.30667 261.684 6.16C261.544 6.01333 261.307 5.94 260.974 5.94C260.714 5.94 260.441 5.98667 260.154 6.08C259.874 6.16667 259.597 6.29 259.324 6.45L258.974 5.59C259.247 5.41667 259.577 5.27333 259.964 5.16C260.351 5.04667 260.717 4.99 261.064 4.99ZM260.774 9.18C261.107 9.18 261.377 9.07 261.584 8.85C261.797 8.62333 261.904 8.33333 261.904 7.98V7.77H261.724C261.277 7.77 260.931 7.79 260.684 7.83C260.437 7.87 260.261 7.94 260.154 8.04C260.047 8.14 259.994 8.27667 259.994 8.45C259.994 8.66333 260.067 8.84 260.214 8.98C260.361 9.11333 260.547 9.18 260.774 9.18ZM271.114 5.11H272.334L270.414 10H269.324L268.124 6.85L266.954 10H265.874L263.944 5.11H265.224L266.474 8.51L267.724 5.11H268.624L269.874 8.53L271.114 5.11ZM276.069 4.99C276.656 4.99 277.092 5.15667 277.379 5.49C277.666 5.82333 277.809 6.32667 277.809 7V10H276.559V7.07C276.559 6.69 276.486 6.41333 276.339 6.24C276.199 6.06667 275.976 5.98 275.669 5.98C275.309 5.98 275.019 6.09333 274.799 6.32C274.586 6.54667 274.479 6.85 274.479 7.23V10H273.229V5.11H274.449V5.84C274.616 5.56667 274.839 5.35667 275.119 5.21C275.399 5.06333 275.716 4.99 276.069 4.99ZM231.15 22.14C231.297 22.14 231.45 22.13 231.61 22.11L231.55 23.04C231.35 23.06 231.167 23.07 231 23.07C230.313 23.07 229.807 22.9133 229.48 22.6C229.153 22.28 228.99 21.8067 228.99 21.18V19.05H228.05V18.11H228.99V16.65H230.24V18.11H231.53V19.05H230.24V21.16C230.24 21.8133 230.543 22.14 231.15 22.14ZM234.721 23.08C234.221 23.08 233.781 22.9767 233.401 22.77C233.028 22.5633 232.738 22.2667 232.531 21.88C232.325 21.4933 232.221 21.0433 232.221 20.53C232.221 20.0167 232.325 19.57 232.531 19.19C232.738 18.8033 233.028 18.5067 233.401 18.3C233.781 18.0933 234.221 17.99 234.721 17.99C235.221 17.99 235.658 18.0933 236.031 18.3C236.411 18.5067 236.701 18.8033 236.901 19.19C237.108 19.57 237.211 20.0167 237.211 20.53C237.211 21.0433 237.108 21.4933 236.901 21.88C236.701 22.2667 236.411 22.5633 236.031 22.77C235.658 22.9767 235.221 23.08 234.721 23.08ZM234.711 22.11C235.118 22.11 235.428 21.9767 235.641 21.71C235.855 21.4433 235.961 21.05 235.961 20.53C235.961 20.0167 235.855 19.6267 235.641 19.36C235.428 19.0867 235.121 18.95 234.721 18.95C234.321 18.95 234.011 19.0867 233.791 19.36C233.578 19.6267 233.471 20.0167 233.471 20.53C233.471 21.05 233.578 21.4433 233.791 21.71C234.005 21.9767 234.311 22.11 234.711 22.11ZM243.058 23.08C242.625 23.08 242.225 23.0267 241.858 22.92C241.498 22.8133 241.192 22.66 240.938 22.46L241.288 21.59C241.808 21.97 242.405 22.16 243.078 22.16C243.365 22.16 243.582 22.1133 243.728 22.02C243.882 21.9267 243.958 21.7933 243.958 21.62C243.958 21.4733 243.905 21.36 243.798 21.28C243.698 21.2 243.515 21.1267 243.248 21.06L242.448 20.88C241.995 20.78 241.658 20.6167 241.438 20.39C241.218 20.1633 241.108 19.87 241.108 19.51C241.108 19.21 241.192 18.9467 241.358 18.72C241.532 18.4867 241.768 18.3067 242.068 18.18C242.375 18.0533 242.728 17.99 243.128 17.99C243.475 17.99 243.808 18.0433 244.128 18.15C244.455 18.2567 244.742 18.4067 244.988 18.6L244.638 19.45C244.132 19.0833 243.625 18.9 243.118 18.9C242.845 18.9 242.632 18.95 242.478 19.05C242.325 19.15 242.248 19.29 242.248 19.47C242.248 19.6033 242.295 19.7133 242.388 19.8C242.488 19.8867 242.645 19.9533 242.858 20L243.688 20.19C244.175 20.2967 244.532 20.4667 244.758 20.7C244.985 20.9267 245.098 21.2267 245.098 21.6C245.098 22.0533 244.915 22.4133 244.548 22.68C244.182 22.9467 243.685 23.08 243.058 23.08ZM248.492 23.08C247.978 23.08 247.532 22.9767 247.152 22.77C246.778 22.5633 246.492 22.27 246.292 21.89C246.092 21.51 245.992 21.0667 245.992 20.56C245.992 20.0533 246.095 19.6067 246.302 19.22C246.515 18.8267 246.815 18.5233 247.202 18.31C247.588 18.0967 248.035 17.99 248.542 17.99C248.888 17.99 249.225 18.0467 249.552 18.16C249.885 18.2667 250.152 18.4133 250.352 18.6L249.992 19.48C249.785 19.3133 249.565 19.1867 249.332 19.1C249.105 19.0133 248.878 18.97 248.652 18.97C248.218 18.97 247.882 19.1067 247.642 19.38C247.402 19.6467 247.282 20.0333 247.282 20.54C247.282 21.04 247.402 21.4267 247.642 21.7C247.882 21.9667 248.218 22.1 248.652 22.1C248.878 22.1 249.105 22.0567 249.332 21.97C249.565 21.8833 249.785 21.7567 249.992 21.59L250.352 22.46C250.138 22.6533 249.865 22.8067 249.532 22.92C249.198 23.0267 248.852 23.08 248.492 23.08ZM253.395 17.99C254.081 17.99 254.591 18.1567 254.925 18.49C255.258 18.8233 255.425 19.3367 255.425 20.03V23H254.235V22.25C254.121 22.51 253.941 22.7133 253.695 22.86C253.455 23.0067 253.175 23.08 252.855 23.08C252.528 23.08 252.231 23.0133 251.965 22.88C251.698 22.7467 251.488 22.5633 251.335 22.33C251.181 22.0967 251.105 21.8367 251.105 21.55C251.105 21.19 251.195 20.9067 251.375 20.7C251.561 20.4933 251.861 20.3433 252.275 20.25C252.688 20.1567 253.258 20.11 253.985 20.11H254.235V19.88C254.235 19.5467 254.161 19.3067 254.015 19.16C253.875 19.0133 253.638 18.94 253.305 18.94C253.045 18.94 252.771 18.9867 252.485 19.08C252.205 19.1667 251.928 19.29 251.655 19.45L251.305 18.59C251.578 18.4167 251.908 18.2733 252.295 18.16C252.681 18.0467 253.048 17.99 253.395 17.99ZM253.105 22.18C253.438 22.18 253.708 22.07 253.915 21.85C254.128 21.6233 254.235 21.3333 254.235 20.98V20.77H254.055C253.608 20.77 253.261 20.79 253.015 20.83C252.768 20.87 252.591 20.94 252.485 21.04C252.378 21.14 252.325 21.2767 252.325 21.45C252.325 21.6633 252.398 21.84 252.545 21.98C252.691 22.1133 252.878 22.18 253.105 22.18ZM256.845 23V15.95H258.095V23H256.845ZM263.824 20.78H260.494C260.534 21.2333 260.671 21.57 260.904 21.79C261.137 22.01 261.471 22.12 261.904 22.12C262.444 22.12 262.937 21.9467 263.384 21.6L263.744 22.46C263.517 22.6467 263.231 22.7967 262.884 22.91C262.544 23.0233 262.201 23.08 261.854 23.08C261.054 23.08 260.421 22.8533 259.954 22.4C259.494 21.9467 259.264 21.3267 259.264 20.54C259.264 20.04 259.364 19.5967 259.564 19.21C259.764 18.8233 260.044 18.5233 260.404 18.31C260.771 18.0967 261.184 17.99 261.644 17.99C262.317 17.99 262.847 18.2067 263.234 18.64C263.627 19.0733 263.824 19.67 263.824 20.43V20.78ZM261.674 18.87C261.341 18.87 261.071 18.9767 260.864 19.19C260.664 19.4033 260.541 19.71 260.494 20.11H262.754C262.741 19.7033 262.641 19.3967 262.454 19.19C262.267 18.9767 262.007 18.87 261.674 18.87Z" fill="black"></path><path d="M17.1151 146L60.4486 22.3464L240.528 146H17.1151Z" fill="#FF4081" fill-opacity="0.3" stroke="#FF4081" stroke-width="3"></path><path d="M41 147C41 144.374 40.5344 141.773 39.6298 139.346C38.7252 136.92 37.3994 134.715 35.7279 132.858C34.0565 131.001 32.0722 129.528 29.8883 128.522C27.7044 127.517 25.3638 127 23 127" stroke="#FF4081" stroke-width="2"></path><path d="M80 36C78.9131 38.105 77.3205 39.9639 75.3384 41.4409C73.3564 42.9179 71.0349 43.9758 68.5434 44.5373C66.0519 45.0989 63.4532 45.1499 60.9372 44.6868C58.4211 44.2236 56.051 43.2578 54 41.8601" stroke="#FF4081" stroke-width="2"></path><path d="M214 127C210.685 128.621 208.003 131.54 206.451 135.217C204.898 138.893 204.58 143.079 205.554 147" stroke="#FF4081" stroke-width="2"></path><g clip-path="url(#clip0)"><path d="M3.32806 151.863C3.32806 152.109 3.57338 152.252 4.06403 152.293C4.25602 152.293 4.35202 152.35 4.35202 152.462C4.35202 152.473 4.34135 152.539 4.32002 152.662C4.28802 152.805 4.25602 152.898 4.22402 152.939C4.19202 152.98 4.12269 153 4.01603 153C3.9947 153 3.9307 153 3.82404 153C3.71738 153 3.53605 152.995 3.28006 152.985C3.02408 152.974 2.68276 152.969 2.25611 152.969C1.49881 152.969 1.01349 152.98 0.80017 153H0.672176C0.597512 152.928 0.560181 152.872 0.560181 152.831C0.581513 152.554 0.650843 152.375 0.768172 152.293H0.992162C1.7388 152.263 2.28277 152.007 2.62409 151.525C2.68809 151.464 3.65338 149.902 5.51997 146.839C7.38655 143.777 8.33585 142.225 8.36785 142.184C8.44251 142.061 8.5705 142 8.75183 142H8.87982H9.15181C9.21581 142.092 9.24781 142.143 9.24781 142.154L9.69579 147.116C9.99444 150.424 10.1544 152.094 10.1758 152.124C10.2291 152.237 10.5758 152.293 11.2157 152.293C11.4824 152.293 11.6157 152.345 11.6157 152.447C11.6157 152.467 11.5997 152.539 11.5677 152.662C11.5357 152.816 11.509 152.908 11.4877 152.939C11.4664 152.969 11.3917 152.99 11.2637 153C11.2317 153 11.1571 153 11.0397 153C10.9224 153 10.7144 152.995 10.4158 152.985C10.1171 152.974 9.72779 152.969 9.24781 152.969C8.24518 152.969 7.58921 152.98 7.27989 153H7.0879C7.0239 152.939 6.9919 152.892 6.9919 152.862C6.9919 152.831 7.00257 152.739 7.0239 152.585C7.06657 152.452 7.09857 152.37 7.1199 152.339L7.1839 152.293H7.50388C8.07986 152.263 8.42118 152.176 8.52784 152.032L8.33585 149.728H4.52801L3.98403 150.619C3.54672 151.325 3.32806 151.74 3.32806 151.863ZM8.25585 149.006C8.25585 148.893 8.19185 148.094 8.06386 146.609C7.93586 145.124 7.8612 144.376 7.83987 144.366L7.40789 145.027C7.23723 145.303 6.90124 145.851 6.39993 146.67L4.95999 149.006L6.60792 149.021C7.70654 149.021 8.25585 149.016 8.25585 149.006Z" fill="black"></path></g><g clip-path="url(#clip1)"><path d="M59.348 6.6735C59.0872 6.6735 58.9326 6.66862 58.8843 6.65886C58.836 6.6491 58.8118 6.59541 58.8118 6.4978C58.8118 6.23426 58.8649 6.07321 58.9712 6.01464C58.9809 6.00488 59.6089 6 60.8552 6C63.3575 6 64.6763 6.00976 64.8115 6.02928C65.4202 6.12689 65.9274 6.34651 66.3332 6.68814C66.739 7.02977 66.9467 7.47877 66.9563 8.03514C66.9563 8.65983 66.6762 9.22108 66.1158 9.71889C65.5554 10.2167 64.913 10.5534 64.1884 10.7291L64.0434 10.7731C64.6618 10.8609 65.169 11.0854 65.5651 11.4466C65.9612 11.8077 66.1641 12.2567 66.1738 12.7936C66.1738 13.5061 65.826 14.1942 65.1303 14.858C64.4347 15.5217 63.5797 15.8975 62.5652 15.9854C62.4976 15.9951 61.4783 16 59.5074 16C57.5752 16 56.5945 15.9902 56.5655 15.9707C56.5269 15.9414 56.5076 15.9024 56.5076 15.8536C56.5076 15.7853 56.5172 15.7169 56.5366 15.6486C56.5849 15.4632 56.6332 15.3607 56.6815 15.3411C56.7201 15.3314 56.7926 15.3265 56.8989 15.3265H56.9858C57.2467 15.3265 57.5365 15.3119 57.8553 15.2826C57.9906 15.2533 58.0824 15.1947 58.1307 15.1069C58.1597 15.0678 58.5075 13.7111 59.1741 11.0366C59.8407 8.36213 60.1741 6.95168 60.1741 6.80527C60.1741 6.73694 59.8987 6.69302 59.348 6.6735ZM65.4057 8.03514C65.4057 7.74231 65.3332 7.46901 65.1883 7.21523C65.0434 6.96144 64.8067 6.79551 64.4782 6.71742C64.4106 6.6979 63.9661 6.68326 63.1449 6.6735C62.9517 6.6735 62.7488 6.6735 62.5363 6.6735C62.3237 6.6735 62.1546 6.67838 62.029 6.68814H61.8406C61.6957 6.6979 61.6039 6.74671 61.5653 6.83455C61.546 6.8736 61.3914 7.45925 61.1016 8.59151C61.1016 8.62079 61.0967 8.65007 61.0871 8.67936L60.6378 10.5242H61.8117C62.5942 10.5242 63.0435 10.5144 63.1594 10.4949C63.7391 10.3973 64.256 10.1142 64.7101 9.64568C65.1642 9.17716 65.396 8.64031 65.4057 8.03514ZM64.6231 12.6471C64.6231 12.2177 64.512 11.8614 64.2898 11.5783C64.0676 11.2953 63.7778 11.1293 63.4203 11.0805C63.3623 11.0708 62.9614 11.0659 62.2174 11.0659C61.0774 11.0659 60.5025 11.0708 60.4929 11.0805C60.4929 11.1 60.4108 11.4563 60.2465 12.1493C60.0823 12.8424 59.9132 13.5305 59.7393 14.2138L59.4784 15.2387C59.4784 15.2777 59.5364 15.2972 59.6523 15.2972C59.7683 15.2972 60.1596 15.307 60.8262 15.3265C61.6861 15.3265 62.1498 15.3216 62.2174 15.3119C62.8164 15.2435 63.3671 14.9605 63.8695 14.4627C64.3719 13.9649 64.6231 13.3597 64.6231 12.6471Z" fill="black"></path></g><g clip-path="url(#clip2)"><path d="M248.7 149.231C248.7 148.177 249.012 147.163 249.637 146.191C250.261 145.219 251.049 144.449 252 143.88C252.951 143.312 253.902 143.023 254.853 143.014C255.692 143.014 256.359 143.248 256.853 143.715C256.937 143.807 257.007 143.885 257.063 143.949C257.119 144.013 257.156 144.059 257.174 144.087L257.188 144.128C257.216 144.128 257.342 144.009 257.566 143.77C257.631 143.715 257.701 143.651 257.776 143.578C257.85 143.504 257.925 143.431 258 143.358C258.074 143.284 258.121 143.234 258.139 143.206L258.349 143H258.433C258.564 143 258.629 143.032 258.629 143.096C258.629 143.133 258.48 143.761 258.181 144.981C257.846 146.255 257.678 146.897 257.678 146.906C257.659 146.952 257.636 146.98 257.608 146.989C257.58 146.998 257.496 147.007 257.356 147.017H257.133C257.077 146.961 257.049 146.92 257.049 146.893C257.049 146.884 257.053 146.851 257.063 146.796C257.072 146.741 257.081 146.65 257.091 146.521C257.1 146.393 257.105 146.246 257.105 146.081C257.105 145.43 256.955 144.862 256.657 144.376C256.359 143.889 255.851 143.642 255.133 143.633C254.89 143.633 254.629 143.665 254.35 143.729C254.07 143.793 253.734 143.903 253.343 144.059C252.951 144.215 252.564 144.472 252.182 144.829C251.8 145.187 251.459 145.613 251.161 146.109C250.863 146.631 250.625 147.241 250.448 147.938C250.271 148.635 250.182 149.204 250.182 149.644C250.182 150.689 250.536 151.441 251.245 151.9C251.692 152.211 252.243 152.367 252.895 152.367C253.744 152.367 254.499 152.055 255.161 151.432C255.823 150.808 256.261 150.13 256.475 149.396C256.513 149.277 256.541 149.208 256.559 149.19C256.578 149.171 256.652 149.162 256.783 149.162C256.969 149.162 257.063 149.204 257.063 149.286C257.063 149.332 257.058 149.373 257.049 149.41C256.778 150.391 256.2 151.235 255.315 151.941C254.429 152.647 253.478 153 252.462 153C251.408 153 250.518 152.656 249.791 151.968C249.063 151.281 248.7 150.368 248.7 149.231Z" fill="black"></path></g><path d="M68.5957 58.7539C68.4503 58.7318 67.9295 58.7208 67.0332 58.7208C66.0966 58.7208 65.5556 58.7318 65.4103 58.7539H65.3013V58.2463H65.6767C65.8382 58.2463 65.9472 58.2463 66.0037 58.2463C66.0603 58.2463 66.1289 58.239 66.2096 58.2243C66.2904 58.2095 66.3469 58.1912 66.3792 58.1691C66.4115 58.147 66.4398 58.1176 66.464 58.0808C66.4721 58.0661 66.4761 57.8675 66.4761 57.485V56.9332H63.3392V56.4257L65.168 53.8767C66.4034 52.1701 67.0292 51.3131 67.0454 51.3057C67.0615 51.291 67.1463 51.2837 67.2997 51.2837H67.5177L67.5904 51.3499V56.4257H68.7047V56.9332H67.5904V57.496C67.5904 57.7976 67.5904 57.9741 67.5904 58.0256C67.5904 58.0771 67.6146 58.1213 67.6631 58.1581C67.7276 58.2095 67.9578 58.239 68.3534 58.2463H68.7047V58.7539H68.5957ZM66.5488 56.4257V52.7402L63.8963 56.4146L65.2165 56.4257H66.5488Z" fill="black"></path><path d="M69.9038 54.154C69.9038 54.154 69.9038 53.8708 69.9038 53.3043C69.9038 52.7379 70.1218 52.2818 70.5578 51.9361C70.9939 51.5903 71.4945 51.4138 72.0597 51.4064C72.633 51.4064 73.1417 51.5609 73.5858 51.8699C74.0299 52.1788 74.2519 52.5797 74.2519 53.0726C74.2519 53.2933 74.2075 53.4993 74.1187 53.6905C74.0299 53.8818 73.9249 54.0363 73.8038 54.154C73.6827 54.2717 73.5575 54.3747 73.4283 54.4629C73.2991 54.5512 73.1941 54.6174 73.1134 54.6616C73.0327 54.7057 72.9882 54.7351 72.9802 54.7498L73.1497 54.8491C73.2628 54.9227 73.3758 54.9963 73.4889 55.0698C73.6019 55.1434 73.6665 55.1838 73.6827 55.1912C74.2882 55.6252 74.591 56.1733 74.591 56.8353C74.591 57.4165 74.3569 57.9204 73.8886 58.347C73.4202 58.7737 72.8146 58.9907 72.0718 58.998C71.3451 58.998 70.7476 58.8105 70.2793 58.4353C69.8109 58.0601 69.5768 57.5967 69.5768 57.045C69.5768 56.2505 70.0976 55.5884 71.1392 55.0588L70.9212 54.9153C70.7516 54.8197 70.6426 54.7461 70.5942 54.6947C70.1339 54.3342 69.9038 53.8708 69.9038 53.3043V54.154ZM72.5199 54.496L72.5926 54.4519C72.641 54.4225 72.6774 54.4004 72.7016 54.3857C72.7258 54.371 72.7662 54.3452 72.8227 54.3085C72.8792 54.2717 72.9277 54.2349 72.9681 54.1981C73.0084 54.1613 73.0528 54.1172 73.1013 54.0657C73.1497 54.0142 73.1941 53.9664 73.2345 53.9222C73.2749 53.8781 73.3153 53.8193 73.3556 53.7457C73.396 53.6721 73.4323 53.6096 73.4646 53.5581C73.4969 53.5066 73.5171 53.4331 73.5252 53.3374C73.5333 53.2418 73.5413 53.1609 73.5494 53.0947C73.5494 52.7784 73.4323 52.5099 73.1982 52.2892C72.964 52.0685 72.6935 51.9287 72.3867 51.8699C72.3302 51.8625 72.1969 51.8588 71.987 51.8588C71.656 51.8588 71.3451 51.9545 71.0544 52.1457C70.7637 52.337 70.6144 52.5761 70.6063 52.863C70.6063 53.0321 70.6588 53.1866 70.7637 53.3264C70.8687 53.4662 70.9737 53.5728 71.0786 53.6464C71.1836 53.72 71.3855 53.8377 71.6842 53.9995C71.7407 54.0363 71.7852 54.062 71.8174 54.0767L72.5199 54.496ZM72.0839 58.5236C72.5522 58.5236 72.9559 58.3985 73.2951 58.1484C73.6342 57.8983 73.8038 57.5967 73.8038 57.2436C73.8038 57.1185 73.7836 57.0008 73.7432 56.8905C73.7028 56.7801 73.6544 56.6882 73.5979 56.6146C73.5413 56.5411 73.4525 56.4601 73.3314 56.3719C73.2103 56.2836 73.1174 56.2174 73.0528 56.1733C72.9882 56.1291 72.8712 56.0592 72.7016 55.9636C72.532 55.868 72.423 55.8054 72.3746 55.776C72.2615 55.7098 72.1404 55.6399 72.0112 55.5664C71.882 55.4928 71.7771 55.4303 71.6963 55.3788L71.5994 55.3236C71.551 55.3236 71.4339 55.3861 71.2482 55.5112C71.0625 55.6363 70.8687 55.8385 70.6668 56.1181C70.465 56.3976 70.36 56.6992 70.3519 57.0229C70.3519 57.4569 70.5255 57.8137 70.8727 58.0932C71.2199 58.3728 71.6237 58.5162 72.0839 58.5236Z" fill="black"></path><path d="M75.9339 49.6338C76.2536 49.2125 76.6903 49.0019 77.244 49.0019C77.518 49.0019 77.7921 49.0695 78.0661 49.2047C78.3401 49.3399 78.5627 49.5792 78.734 49.9224C78.9452 50.3541 79.0508 50.947 79.0508 51.7011C79.0508 52.5072 78.9281 53.1235 78.6826 53.55C78.5684 53.7684 78.4114 53.9427 78.2116 54.0727C78.0118 54.2027 77.8377 54.2833 77.6893 54.3145C77.5409 54.3457 77.3953 54.3639 77.2526 54.3691C77.1042 54.3691 76.9557 54.3535 76.8073 54.3223C76.6589 54.2911 76.4848 54.2079 76.285 54.0727C76.0852 53.9375 75.9282 53.7632 75.814 53.55C75.5685 53.1235 75.4458 52.5072 75.4458 51.7011C75.4458 50.7962 75.6085 50.107 75.9339 49.6338ZM77.8606 49.5401C77.6893 49.3737 77.4866 49.2905 77.2526 49.2905C77.0128 49.2905 76.8073 49.3737 76.6361 49.5401C76.4933 49.6754 76.3991 49.8626 76.3535 50.1018C76.3078 50.3411 76.285 50.8404 76.285 51.5997C76.285 52.4214 76.3078 52.9623 76.3535 53.2224C76.3991 53.4824 76.5019 53.6878 76.6617 53.8387C76.8216 53.9947 77.0185 54.0727 77.2526 54.0727C77.4809 54.0727 77.675 53.9947 77.8349 53.8387C78.0004 53.6826 78.1032 53.4642 78.1431 53.1833C78.1831 52.9025 78.2059 52.3746 78.2116 51.5997C78.2116 50.8456 78.1888 50.3489 78.1431 50.1096C78.0975 49.8704 78.0033 49.6806 77.8606 49.5401Z" fill="black"></path><path d="M41.798 127.154C41.798 127.154 41.798 126.871 41.798 126.304C41.798 125.738 42.0032 125.282 42.4136 124.936C42.8239 124.59 43.2951 124.414 43.8271 124.406C44.3666 124.406 44.8454 124.561 45.2634 124.87C45.6814 125.179 45.8903 125.58 45.8903 126.073C45.8903 126.293 45.8486 126.499 45.765 126.691C45.6814 126.882 45.5826 127.036 45.4686 127.154C45.3546 127.272 45.2368 127.375 45.1152 127.463C44.9936 127.551 44.8948 127.617 44.8188 127.662C44.7428 127.706 44.701 127.735 44.6934 127.75L44.853 127.849C44.9594 127.923 45.0658 127.996 45.1722 128.07C45.2786 128.143 45.3394 128.184 45.3546 128.191C45.9245 128.625 46.2095 129.173 46.2095 129.835C46.2095 130.416 45.9891 130.92 45.5484 131.347C45.1076 131.774 44.5376 131.991 43.8385 131.998C43.1545 131.998 42.5922 131.81 42.1514 131.435C41.7106 131.06 41.4902 130.597 41.4902 130.045C41.4902 129.25 41.9804 128.588 42.9607 128.059L42.7556 127.915C42.596 127.82 42.4934 127.746 42.4478 127.695C42.0146 127.334 41.798 126.871 41.798 126.304V127.154ZM44.2603 127.496L44.3286 127.452C44.3742 127.422 44.4084 127.4 44.4312 127.386C44.454 127.371 44.492 127.345 44.5452 127.308C44.5984 127.272 44.644 127.235 44.682 127.198C44.72 127.161 44.7618 127.117 44.8074 127.066C44.853 127.014 44.8948 126.966 44.9328 126.922C44.9708 126.878 45.0088 126.819 45.0468 126.746C45.0848 126.672 45.119 126.61 45.1494 126.558C45.1798 126.507 45.1988 126.433 45.2064 126.337C45.214 126.242 45.2216 126.161 45.2292 126.095C45.2292 125.778 45.119 125.51 44.8986 125.289C44.6782 125.068 44.4236 124.929 44.1349 124.87C44.0817 124.863 43.9563 124.859 43.7587 124.859C43.4471 124.859 43.1545 124.954 42.8809 125.146C42.6074 125.337 42.4668 125.576 42.4592 125.863C42.4592 126.032 42.5086 126.187 42.6074 126.326C42.7062 126.466 42.8049 126.573 42.9037 126.646C43.0025 126.72 43.1925 126.838 43.4737 126.999C43.5269 127.036 43.5687 127.062 43.5991 127.077L44.2603 127.496ZM43.8499 131.524C44.2907 131.524 44.6706 131.399 44.9898 131.148C45.309 130.898 45.4686 130.597 45.4686 130.244C45.4686 130.119 45.4496 130.001 45.4116 129.89C45.3736 129.78 45.328 129.688 45.2748 129.615C45.2216 129.541 45.138 129.46 45.024 129.372C44.91 129.284 44.8226 129.217 44.7618 129.173C44.701 129.129 44.5908 129.059 44.4312 128.964C44.2717 128.868 44.1691 128.805 44.1235 128.776C44.0171 128.71 43.9031 128.64 43.7815 128.566C43.6599 128.493 43.5611 128.43 43.4851 128.379L43.3939 128.324C43.3483 128.324 43.2381 128.386 43.0633 128.511C42.8885 128.636 42.7062 128.839 42.5162 129.118C42.3262 129.398 42.2274 129.699 42.2198 130.023C42.2198 130.457 42.3832 130.814 42.71 131.093C43.0367 131.373 43.4167 131.516 43.8499 131.524Z" fill="black"></path><path d="M49.1278 125.376L48.9796 125.431C48.8732 125.468 48.7212 125.505 48.5236 125.542C48.326 125.578 48.1056 125.604 47.8625 125.619H47.6459V125.111H47.8625C48.2196 125.097 48.5502 125.041 48.8542 124.946C49.1582 124.85 49.371 124.762 49.4926 124.681C49.6141 124.6 49.7205 124.519 49.8117 124.438C49.8269 124.416 49.8725 124.405 49.9485 124.405C50.0169 124.405 50.0815 124.427 50.1423 124.471V127.771L50.1537 131.081C50.2069 131.132 50.2525 131.165 50.2905 131.18C50.3285 131.195 50.4197 131.21 50.5641 131.224C50.7085 131.239 50.9441 131.246 51.2708 131.246H51.5672V131.754H51.4418C51.2822 131.732 50.6781 131.721 49.6293 131.721C48.5958 131.721 47.9993 131.732 47.8397 131.754H47.7029V131.246H47.9993C48.1664 131.246 48.3108 131.246 48.4324 131.246C48.554 131.246 48.649 131.243 48.7174 131.235C48.7858 131.228 48.8466 131.217 48.8998 131.202C48.953 131.187 48.9834 131.18 48.991 131.18C48.9986 131.18 49.0214 131.162 49.0594 131.125C49.0974 131.088 49.1202 131.073 49.1278 131.081V125.376Z" fill="black"></path><path d="M53.1731 122.634C53.4739 122.212 53.885 122.002 54.4061 122.002C54.664 122.002 54.9219 122.069 55.1798 122.205C55.4377 122.34 55.6473 122.579 55.8084 122.922C56.0072 123.354 56.1066 123.947 56.1066 124.701C56.1066 125.507 55.9911 126.124 55.7601 126.55C55.6526 126.768 55.5049 126.943 55.3168 127.073C55.1288 127.203 54.9649 127.283 54.8252 127.315C54.6855 127.346 54.5485 127.364 54.4142 127.369C54.2745 127.369 54.1348 127.354 53.9951 127.322C53.8554 127.291 53.6915 127.208 53.5035 127.073C53.3154 126.937 53.1677 126.763 53.0602 126.55C52.8292 126.124 52.7137 125.507 52.7137 124.701C52.7137 123.796 52.8668 123.107 53.1731 122.634ZM54.9864 122.54C54.8252 122.374 54.6345 122.291 54.4142 122.291C54.1885 122.291 53.9951 122.374 53.8339 122.54C53.6996 122.675 53.611 122.863 53.568 123.102C53.525 123.341 53.5035 123.84 53.5035 124.6C53.5035 125.421 53.525 125.962 53.568 126.222C53.611 126.482 53.7077 126.688 53.8581 126.839C54.0085 126.995 54.1939 127.073 54.4142 127.073C54.6291 127.073 54.8118 126.995 54.9622 126.839C55.118 126.683 55.2147 126.464 55.2524 126.183C55.29 125.902 55.3115 125.375 55.3168 124.6C55.3168 123.846 55.2953 123.349 55.2524 123.11C55.2094 122.87 55.1207 122.681 54.9864 122.54Z" fill="black"></path><path d="M145.344 60.7919L145.079 60.8937C144.889 60.9615 144.617 61.0293 144.263 61.0971C143.91 61.1649 143.515 61.2124 143.08 61.2395H142.693V60.3037H143.08C143.719 60.2766 144.311 60.1748 144.855 59.9985C145.399 59.8222 145.779 59.6595 145.997 59.5103C146.214 59.3611 146.405 59.2119 146.568 59.0627C146.595 59.022 146.677 59.0017 146.813 59.0017C146.935 59.0017 147.051 59.0424 147.159 59.1237V65.2066L147.18 71.3098C147.275 71.4047 147.357 71.4658 147.424 71.4929C147.492 71.52 147.656 71.5471 147.914 71.5743C148.172 71.6014 148.594 71.615 149.178 71.615H149.709V72.5508H149.484C149.199 72.5101 148.118 72.4897 146.242 72.4897C144.392 72.4897 143.325 72.5101 143.04 72.5508H142.795V71.615H143.325C143.624 71.615 143.883 71.615 144.1 71.615C144.318 71.615 144.488 71.6082 144.61 71.5946C144.732 71.5811 144.841 71.5607 144.936 71.5336C145.031 71.5065 145.086 71.4929 145.099 71.4929C145.113 71.4929 145.154 71.459 145.222 71.3912C145.29 71.3234 145.331 71.2962 145.344 71.3098V60.7919Z" fill="black"></path><path d="M153.155 60.6492C153.917 59.5507 154.957 59.0014 156.276 59.0014C156.928 59.0014 157.581 59.1777 158.234 59.5303C158.886 59.8829 159.417 60.5068 159.825 61.402C160.328 62.5277 160.579 64.0738 160.579 66.0404C160.579 68.1426 160.287 69.7498 159.702 70.8619C159.43 71.4316 159.056 71.8859 158.58 72.225C158.105 72.564 157.69 72.7743 157.336 72.8556C156.983 72.937 156.636 72.9845 156.296 72.998C155.943 72.998 155.589 72.9574 155.236 72.876C154.882 72.7946 154.467 72.5776 153.992 72.225C153.516 71.8723 153.142 71.418 152.87 70.8619C152.285 69.7498 151.993 68.1426 151.993 66.0404C151.993 63.6805 152.38 61.8834 153.155 60.6492ZM157.744 60.4051C157.336 59.9711 156.854 59.7541 156.296 59.7541C155.725 59.7541 155.236 59.9711 154.828 60.4051C154.488 60.7577 154.263 61.246 154.155 61.8699C154.046 62.4938 153.992 63.7958 153.992 65.7759C153.992 67.9188 154.046 69.3293 154.155 70.0075C154.263 70.6856 154.508 71.2213 154.889 71.6147C155.27 72.0215 155.739 72.225 156.296 72.225C156.84 72.225 157.302 72.0215 157.683 71.6147C158.077 71.2078 158.322 70.6381 158.417 69.9058C158.512 69.1734 158.567 67.7968 158.58 65.7759C158.58 63.8093 158.526 62.5141 158.417 61.8902C158.308 61.2663 158.084 60.7713 157.744 60.4051Z" fill="black"></path><path d="M162.986 71.3301C162.986 71.0046 163.101 70.7198 163.332 70.4757C163.564 70.2316 163.856 70.1095 164.209 70.1095C164.536 70.1095 164.821 70.218 165.066 70.435C165.311 70.652 165.44 70.9436 165.454 71.3098C165.454 71.6489 165.338 71.9405 165.107 72.1846C164.876 72.4287 164.583 72.5508 164.23 72.5508C163.876 72.5508 163.584 72.4355 163.353 72.2049C163.122 71.9744 162.999 71.6828 162.986 71.3301Z" fill="black"></path><path d="M168.492 64.067C168.492 64.067 168.492 63.5449 168.492 62.5005C168.492 61.4562 168.86 60.6153 169.594 59.9779C170.328 59.3404 171.171 59.0149 172.123 59.0014C173.088 59.0014 173.945 59.2862 174.693 59.8558C175.44 60.4254 175.814 61.1646 175.814 62.0733C175.814 62.4802 175.739 62.8599 175.59 63.2126C175.44 63.5652 175.264 63.85 175.06 64.067C174.856 64.284 174.645 64.4739 174.427 64.6367C174.21 64.7994 174.033 64.9215 173.897 65.0029C173.761 65.0842 173.686 65.1385 173.673 65.1656L173.958 65.3487C174.149 65.4843 174.339 65.62 174.529 65.7556C174.72 65.8912 174.828 65.9658 174.856 65.9794C175.875 66.7796 176.385 67.79 176.385 69.0106C176.385 70.0821 175.991 71.0111 175.202 71.7978C174.414 72.5844 173.394 72.9845 172.143 72.998C170.919 72.998 169.913 72.6522 169.125 71.9605C168.336 71.2688 167.942 70.4144 167.942 69.3972C167.942 67.9324 168.819 66.7117 170.573 65.7352L170.206 65.4708C169.92 65.2944 169.737 65.1588 169.655 65.0639C168.88 64.3993 168.492 63.5449 168.492 62.5005V64.067ZM172.898 64.6977L173.02 64.6163C173.102 64.5621 173.163 64.5214 173.204 64.4943C173.244 64.4671 173.312 64.4197 173.408 64.3518C173.503 64.284 173.584 64.2162 173.652 64.1484C173.72 64.0806 173.795 63.9992 173.877 63.9043C173.958 63.8093 174.033 63.7212 174.101 63.6398C174.169 63.5584 174.237 63.4499 174.305 63.3143C174.373 63.1787 174.434 63.0634 174.489 62.9684C174.543 62.8735 174.577 62.7379 174.591 62.5616C174.604 62.3853 174.618 62.2361 174.631 62.114C174.631 61.5308 174.434 61.0358 174.04 60.6289C173.646 60.222 173.19 59.9643 172.673 59.8558C172.578 59.8423 172.354 59.8355 172 59.8355C171.443 59.8355 170.919 60.0118 170.43 60.3644C169.94 60.717 169.689 61.1578 169.675 61.6868C169.675 61.9987 169.764 62.2835 169.94 62.5412C170.117 62.7989 170.294 62.9956 170.471 63.1312C170.648 63.2668 170.987 63.4838 171.49 63.7822C171.586 63.85 171.66 63.8975 171.715 63.9246L172.898 64.6977ZM172.164 72.1233C172.952 72.1233 173.632 71.8927 174.203 71.4316C174.774 70.9704 175.06 70.4144 175.06 69.7633C175.06 69.5328 175.026 69.3158 174.958 69.1123C174.89 68.9089 174.808 68.7394 174.713 68.6037C174.618 68.4681 174.468 68.3189 174.264 68.1562C174.06 67.9934 173.904 67.8714 173.795 67.79C173.686 67.7086 173.489 67.5798 173.204 67.4034C172.918 67.2271 172.735 67.1118 172.653 67.0576C172.463 66.9355 172.259 66.8067 172.041 66.6711C171.824 66.5354 171.647 66.4201 171.511 66.3252L171.348 66.2235C171.266 66.2235 171.069 66.3388 170.756 66.5693C170.444 66.7999 170.117 67.1729 169.777 67.6883C169.437 68.2036 169.261 68.7597 169.247 69.3565C169.247 70.1567 169.539 70.8145 170.124 71.3298C170.709 71.8452 171.389 72.1097 172.164 72.1233Z" fill="black"></path><path d="M177.956 69.3154C177.956 67.8371 178.54 66.5079 179.71 65.328C180.879 64.148 182.143 63.558 183.503 63.558C184.264 63.558 184.863 63.7208 185.298 64.0463C185.733 64.3718 185.957 64.799 185.971 65.328C185.971 65.7213 185.842 66.0536 185.583 66.3248C185.325 66.5961 184.999 66.7385 184.604 66.752C184.346 66.752 184.142 66.6842 183.993 66.5486C183.843 66.413 183.768 66.2095 183.768 65.9383C183.768 65.667 183.843 65.4365 183.993 65.2466C184.142 65.0567 184.292 64.9143 184.441 64.8194C184.591 64.7244 184.686 64.6837 184.727 64.6973H184.747C184.747 64.6702 184.706 64.6295 184.625 64.5752C184.543 64.521 184.4 64.4667 184.196 64.4125C183.993 64.3582 183.761 64.3311 183.503 64.3311C183.095 64.3311 182.708 64.426 182.341 64.6159C182.055 64.738 181.763 64.9482 181.464 65.2466C180.865 65.8433 180.43 66.6842 180.158 67.7692C179.886 68.8543 179.744 69.6409 179.73 70.1292C179.73 70.753 179.907 71.2209 180.26 71.5329C180.559 71.8584 180.954 72.0211 181.443 72.0211H181.525C183.048 72.0211 184.305 71.4447 185.298 70.2919C185.42 70.1563 185.502 70.0885 185.543 70.0885C185.597 70.0885 185.685 70.1495 185.808 70.2716C185.93 70.3936 185.998 70.4886 186.012 70.5564C186.025 70.6242 185.964 70.7259 185.828 70.8615C185.692 70.9972 185.495 71.187 185.237 71.4312C184.978 71.6753 184.672 71.8787 184.319 72.0415C183.965 72.2042 183.53 72.3738 183.014 72.5501C182.497 72.7264 181.953 72.801 181.382 72.7739C180.362 72.7739 179.54 72.4484 178.914 71.7974C178.289 71.1464 177.969 70.319 177.956 69.3154Z" fill="black"></path><path d="M186.522 66.7109C186.535 66.6295 186.556 66.521 186.583 66.3854C186.61 66.2498 186.692 65.9921 186.828 65.6123C186.964 65.2326 187.1 64.9139 187.235 64.6562C187.371 64.3985 187.589 64.1476 187.888 63.9034C188.187 63.6593 188.486 63.544 188.786 63.5576C189.085 63.5712 189.377 63.6186 189.662 63.7C189.948 63.7814 190.152 63.9034 190.274 64.0662C190.397 64.229 190.505 64.3781 190.601 64.5138C190.696 64.6494 190.75 64.7782 190.764 64.9003L190.805 65.0427C190.805 65.0698 190.811 65.0834 190.825 65.0834L191.049 64.8596C191.865 63.9916 192.824 63.5576 193.925 63.5576C194.156 63.5576 194.367 63.5712 194.557 63.5983C194.748 63.6254 194.924 63.6729 195.088 63.7407C195.251 63.8085 195.38 63.8763 195.475 63.9441C195.57 64.012 195.672 64.0933 195.781 64.1883C195.89 64.2832 195.958 64.3714 195.985 64.4527C196.012 64.5341 196.067 64.6223 196.148 64.7172C196.23 64.8121 196.257 64.8935 196.23 64.9613C196.202 65.0292 196.223 65.0902 196.291 65.1444C196.359 65.1987 196.372 65.2462 196.332 65.2868L196.495 65.0834C197.351 64.0662 198.364 63.5576 199.534 63.5576C200.268 63.5576 200.859 63.7407 201.308 64.1069C201.757 64.4731 201.988 65.0088 202.001 65.7141C202.001 66.4058 201.743 67.4772 201.226 68.9284C200.71 70.3796 200.451 71.2476 200.451 71.5325C200.465 71.7223 200.499 71.8512 200.553 71.919C200.608 71.9868 200.71 72.0207 200.859 72.0207C201.24 72.0207 201.594 71.8173 201.92 71.4104C202.246 71.0035 202.511 70.4474 202.715 69.7422C202.756 69.593 202.797 69.5048 202.838 69.4777C202.878 69.4506 202.987 69.437 203.164 69.437C203.436 69.437 203.572 69.4913 203.572 69.5998C203.572 69.6133 203.545 69.7151 203.49 69.9049C203.381 70.2982 203.232 70.6848 203.042 71.0645C202.851 71.4443 202.539 71.8241 202.103 72.2038C201.668 72.5836 201.199 72.7667 200.696 72.7531C200.057 72.7531 199.595 72.57 199.309 72.2038C199.024 71.8376 198.881 71.4579 198.881 71.0645C198.881 70.8068 199.126 69.9931 199.615 68.6233C200.105 67.2534 200.356 66.2227 200.37 65.531C200.37 64.7308 200.071 64.3307 199.472 64.3307H199.37C198.201 64.3307 197.215 65.0156 196.413 66.3854L196.27 66.6295L195.597 69.3556C195.149 71.1324 194.89 72.0885 194.822 72.2241C194.646 72.5903 194.353 72.7734 193.945 72.7734C193.769 72.7734 193.626 72.726 193.517 72.631C193.408 72.5361 193.334 72.4547 193.293 72.3869C193.252 72.3191 193.232 72.2513 193.232 72.1835C193.232 72.0343 193.463 71.0645 193.925 69.2743L194.659 66.304C194.7 66.1006 194.72 65.8429 194.72 65.531C194.72 64.7308 194.421 64.3307 193.823 64.3307H193.721C192.552 64.3307 191.566 65.0156 190.764 66.3854L190.621 66.6295L189.948 69.3556C189.499 71.1324 189.241 72.0885 189.173 72.2241C188.996 72.5903 188.704 72.7734 188.296 72.7734C188.119 72.7734 187.977 72.7327 187.868 72.6514C187.759 72.57 187.684 72.4886 187.643 72.4072C187.603 72.3259 187.589 72.2581 187.603 72.2038C187.603 72.0275 187.861 70.9154 188.378 68.8674C188.908 66.7787 189.173 65.6869 189.173 65.592C189.214 65.3886 189.234 65.2055 189.234 65.0427C189.234 64.5545 189.064 64.3103 188.724 64.3103C188.425 64.3103 188.174 64.5002 187.97 64.88C187.766 65.2597 187.609 65.6734 187.501 66.1209C187.392 66.5685 187.31 66.8126 187.256 66.8533C187.229 66.8805 187.12 66.894 186.93 66.894H186.644C186.562 66.8126 186.522 66.7516 186.522 66.7109Z" fill="black"></path><defs><clipPath id="clip0"><rect width="12" height="11" fill="white" transform="translate(0 142)"></rect></clipPath><clipPath id="clip1"><rect width="11" height="10" fill="white" transform="translate(56 6)"></rect></clipPath><clipPath id="clip2"><rect width="10" height="10" fill="white" transform="translate(248 143)"></rect></clipPath></defs></svg> 